<svg width="1022" height="877" viewBox="0 0 1022 877" fill="none" xmlns="http://www.w3.org/2000/svg">
<mask id="path-1-inside-1_699_277" fill="white">
<path d="M0 0H146.287V146.446H0V0Z"/>
<path d="M0 146.111H146.287V292.557H0V146.111Z"/>
<path d="M0 292.222H146.287V438.668H0V292.222Z"/>
<path d="M0 438.332H146.287V584.778H0V438.332Z"/>
<path d="M0 584.443H146.287V730.889H0V584.443Z"/>
<path d="M0 730.554H146.287V877H0V730.554Z"/>
<path d="M145.952 0H292.239V146.446H145.952V0Z"/>
<path d="M145.952 146.111H292.239V292.557H145.952V146.111Z"/>
<path d="M145.952 292.222H292.239V438.668H145.952V292.222Z"/>
<path d="M145.952 438.332H292.239V584.778H145.952V438.332Z"/>
<path d="M145.952 584.443H292.239V730.889H145.952V584.443Z"/>
<path d="M145.952 730.554H292.239V877H145.952V730.554Z"/>
<path d="M291.904 0H438.191V146.446H291.904V0Z"/>
<path d="M291.904 146.111H438.191V292.557H291.904V146.111Z"/>
<path d="M291.904 292.222H438.191V438.668H291.904V292.222Z"/>
<path d="M291.904 438.332H438.191V584.778H291.904V438.332Z"/>
<path d="M291.904 584.443H438.191V730.889H291.904V584.443Z"/>
<path d="M291.904 730.554H438.191V877H291.904V730.554Z"/>
<path d="M437.857 0H584.143V146.446H437.857V0Z"/>
<path d="M437.857 146.111H584.143V292.557H437.857V146.111Z"/>
<path d="M437.857 292.222H584.143V438.668H437.857V292.222Z"/>
<path d="M437.857 438.332H584.143V584.778H437.857V438.332Z"/>
<path d="M437.857 584.443H584.143V730.889H437.857V584.443Z"/>
<path d="M437.857 730.554H584.143V877H437.857V730.554Z"/>
<path d="M583.809 0H730.096V146.446H583.809V0Z"/>
<path d="M583.809 146.111H730.096V292.557H583.809V146.111Z"/>
<path d="M583.809 292.222H730.096V438.668H583.809V292.222Z"/>
<path d="M583.809 438.332H730.096V584.778H583.809V438.332Z"/>
<path d="M583.809 584.443H730.096V730.889H583.809V584.443Z"/>
<path d="M583.809 730.554H730.096V877H583.809V730.554Z"/>
<path d="M729.761 0H876.048V146.446H729.761V0Z"/>
<path d="M729.761 146.111H876.048V292.557H729.761V146.111Z"/>
<path d="M729.761 292.222H876.048V438.668H729.761V292.222Z"/>
<path d="M729.761 438.332H876.048V584.778H729.761V438.332Z"/>
<path d="M729.761 584.443H876.048V730.889H729.761V584.443Z"/>
<path d="M729.761 730.554H876.048V877H729.761V730.554Z"/>
<path d="M875.713 0H1022V146.446H875.713V0Z"/>
<path d="M875.713 146.111H1022V292.557H875.713V146.111Z"/>
<path d="M875.713 292.222H1022V438.668H875.713V292.222Z"/>
<path d="M875.713 438.332H1022V584.778H875.713V438.332Z"/>
<path d="M875.713 584.443H1022V730.889H875.713V584.443Z"/>
<path d="M875.713 730.554H1022V877H875.713V730.554Z"/>
</mask>
<path d="M0 0V-0.4H-0.4V0H0ZM146.287 0H146.687V-0.4H146.287V0ZM146.287 146.446V146.846H146.687V146.446H146.287ZM0 146.446H-0.4V146.846H0V146.446ZM0 146.111V145.711H-0.4V146.111H0ZM146.287 146.111H146.687V145.711H146.287V146.111ZM146.287 292.557V292.957H146.687V292.557H146.287ZM0 292.557H-0.4V292.957H0V292.557ZM0 292.222V291.822H-0.4V292.222H0ZM146.287 292.222H146.687V291.822H146.287V292.222ZM146.287 438.668V439.068H146.687V438.668H146.287ZM0 438.668H-0.4V439.068H0V438.668ZM0 438.332V437.932H-0.4V438.332H0ZM146.287 438.332H146.687V437.932H146.287V438.332ZM146.287 584.778V585.178H146.687V584.778H146.287ZM0 584.778H-0.4V585.178H0V584.778ZM0 584.443V584.043H-0.4V584.443H0ZM146.287 584.443H146.687V584.043H146.287V584.443ZM146.287 730.889V731.289H146.687V730.889H146.287ZM0 730.889H-0.4V731.289H0V730.889ZM0 730.554V730.154H-0.4V730.554H0ZM146.287 730.554H146.687V730.154H146.287V730.554ZM146.287 877V877.4H146.687V877H146.287ZM0 877H-0.4V877.4H0V877ZM145.952 0V-0.4H145.552V0H145.952ZM292.239 0H292.639V-0.4H292.239V0ZM292.239 146.446V146.846H292.639V146.446H292.239ZM145.952 146.446H145.552V146.846H145.952V146.446ZM145.952 146.111V145.711H145.552V146.111H145.952ZM292.239 146.111H292.639V145.711H292.239V146.111ZM292.239 292.557V292.957H292.639V292.557H292.239ZM145.952 292.557H145.552V292.957H145.952V292.557ZM145.952 292.222V291.822H145.552V292.222H145.952ZM292.239 292.222H292.639V291.822H292.239V292.222ZM292.239 438.668V439.068H292.639V438.668H292.239ZM145.952 438.668H145.552V439.068H145.952V438.668ZM145.952 438.332V437.932H145.552V438.332H145.952ZM292.239 438.332H292.639V437.932H292.239V438.332ZM292.239 584.778V585.178H292.639V584.778H292.239ZM145.952 584.778H145.552V585.178H145.952V584.778ZM145.952 584.443V584.043H145.552V584.443H145.952ZM292.239 584.443H292.639V584.043H292.239V584.443ZM292.239 730.889V731.289H292.639V730.889H292.239ZM145.952 730.889H145.552V731.289H145.952V730.889ZM145.952 730.554V730.154H145.552V730.554H145.952ZM292.239 730.554H292.639V730.154H292.239V730.554ZM292.239 877V877.4H292.639V877H292.239ZM145.952 877H145.552V877.4H145.952V877ZM291.904 0V-0.4H291.504V0H291.904ZM438.191 0H438.591V-0.4H438.191V0ZM438.191 146.446V146.846H438.591V146.446H438.191ZM291.904 146.446H291.504V146.846H291.904V146.446ZM291.904 146.111V145.711H291.504V146.111H291.904ZM438.191 146.111H438.591V145.711H438.191V146.111ZM438.191 292.557V292.957H438.591V292.557H438.191ZM291.904 292.557H291.504V292.957H291.904V292.557ZM291.904 292.222V291.822H291.504V292.222H291.904ZM438.191 292.222H438.591V291.822H438.191V292.222ZM438.191 438.668V439.068H438.591V438.668H438.191ZM291.904 438.668H291.504V439.068H291.904V438.668ZM291.904 438.332V437.932H291.504V438.332H291.904ZM438.191 438.332H438.591V437.932H438.191V438.332ZM438.191 584.778V585.178H438.591V584.778H438.191ZM291.904 584.778H291.504V585.178H291.904V584.778ZM291.904 584.443V584.043H291.504V584.443H291.904ZM438.191 584.443H438.591V584.043H438.191V584.443ZM438.191 730.889V731.289H438.591V730.889H438.191ZM291.904 730.889H291.504V731.289H291.904V730.889ZM291.904 730.554V730.154H291.504V730.554H291.904ZM438.191 730.554H438.591V730.154H438.191V730.554ZM438.191 877V877.4H438.591V877H438.191ZM291.904 877H291.504V877.4H291.904V877ZM437.857 0V-0.4H437.457V0H437.857ZM584.143 0H584.543V-0.4H584.143V0ZM584.143 146.446V146.846H584.543V146.446H584.143ZM437.857 146.446H437.457V146.846H437.857V146.446ZM437.857 146.111V145.711H437.457V146.111H437.857ZM584.143 146.111H584.543V145.711H584.143V146.111ZM584.143 292.557V292.957H584.543V292.557H584.143ZM437.857 292.557H437.457V292.957H437.857V292.557ZM437.857 292.222V291.822H437.457V292.222H437.857ZM584.143 292.222H584.543V291.822H584.143V292.222ZM584.143 438.668V439.068H584.543V438.668H584.143ZM437.857 438.668H437.457V439.068H437.857V438.668ZM437.857 438.332V437.932H437.457V438.332H437.857ZM584.143 438.332H584.543V437.932H584.143V438.332ZM584.143 584.778V585.178H584.543V584.778H584.143ZM437.857 584.778H437.457V585.178H437.857V584.778ZM437.857 584.443V584.043H437.457V584.443H437.857ZM584.143 584.443H584.543V584.043H584.143V584.443ZM584.143 730.889V731.289H584.543V730.889H584.143ZM437.857 730.889H437.457V731.289H437.857V730.889ZM437.857 730.554V730.154H437.457V730.554H437.857ZM584.143 730.554H584.543V730.154H584.143V730.554ZM584.143 877V877.4H584.543V877H584.143ZM437.857 877H437.457V877.4H437.857V877ZM583.809 0V-0.4H583.409V0H583.809ZM730.096 0H730.496V-0.4H730.096V0ZM730.096 146.446V146.846H730.496V146.446H730.096ZM583.809 146.446H583.409V146.846H583.809V146.446ZM583.809 146.111V145.711H583.409V146.111H583.809ZM730.096 146.111H730.496V145.711H730.096V146.111ZM730.096 292.557V292.957H730.496V292.557H730.096ZM583.809 292.557H583.409V292.957H583.809V292.557ZM583.809 292.222V291.822H583.409V292.222H583.809ZM730.096 292.222H730.496V291.822H730.096V292.222ZM730.096 438.668V439.068H730.496V438.668H730.096ZM583.809 438.668H583.409V439.068H583.809V438.668ZM583.809 438.332V437.932H583.409V438.332H583.809ZM730.096 438.332H730.496V437.932H730.096V438.332ZM730.096 584.778V585.178H730.496V584.778H730.096ZM583.809 584.778H583.409V585.178H583.809V584.778ZM583.809 584.443V584.043H583.409V584.443H583.809ZM730.096 584.443H730.496V584.043H730.096V584.443ZM730.096 730.889V731.289H730.496V730.889H730.096ZM583.809 730.889H583.409V731.289H583.809V730.889ZM583.809 730.554V730.154H583.409V730.554H583.809ZM730.096 730.554H730.496V730.154H730.096V730.554ZM730.096 877V877.4H730.496V877H730.096ZM583.809 877H583.409V877.4H583.809V877ZM729.761 0V-0.4H729.361V0H729.761ZM876.048 0H876.448V-0.4H876.048V0ZM876.048 146.446V146.846H876.448V146.446H876.048ZM729.761 146.446H729.361V146.846H729.761V146.446ZM729.761 146.111V145.711H729.361V146.111H729.761ZM876.048 146.111H876.448V145.711H876.048V146.111ZM876.048 292.557V292.957H876.448V292.557H876.048ZM729.761 292.557H729.361V292.957H729.761V292.557ZM729.761 292.222V291.822H729.361V292.222H729.761ZM876.048 292.222H876.448V291.822H876.048V292.222ZM876.048 438.668V439.068H876.448V438.668H876.048ZM729.761 438.668H729.361V439.068H729.761V438.668ZM729.761 438.332V437.932H729.361V438.332H729.761ZM876.048 438.332H876.448V437.932H876.048V438.332ZM876.048 584.778V585.178H876.448V584.778H876.048ZM729.761 584.778H729.361V585.178H729.761V584.778ZM729.761 584.443V584.043H729.361V584.443H729.761ZM876.048 584.443H876.448V584.043H876.048V584.443ZM876.048 730.889V731.289H876.448V730.889H876.048ZM729.761 730.889H729.361V731.289H729.761V730.889ZM729.761 730.554V730.154H729.361V730.554H729.761ZM876.048 730.554H876.448V730.154H876.048V730.554ZM876.048 877V877.4H876.448V877H876.048ZM729.761 877H729.361V877.4H729.761V877ZM875.713 0V-0.4H875.313V0H875.713ZM1022 0H1022.4V-0.4H1022V0ZM1022 146.446V146.846H1022.4V146.446H1022ZM875.713 146.446H875.313V146.846H875.713V146.446ZM875.713 146.111V145.711H875.313V146.111H875.713ZM1022 146.111H1022.4V145.711H1022V146.111ZM1022 292.557V292.957H1022.4V292.557H1022ZM875.713 292.557H875.313V292.957H875.713V292.557ZM875.713 292.222V291.822H875.313V292.222H875.713ZM1022 292.222H1022.4V291.822H1022V292.222ZM1022 438.668V439.068H1022.4V438.668H1022ZM875.713 438.668H875.313V439.068H875.713V438.668ZM875.713 438.332V437.932H875.313V438.332H875.713ZM1022 438.332H1022.4V437.932H1022V438.332ZM1022 584.778V585.178H1022.4V584.778H1022ZM875.713 584.778H875.313V585.178H875.713V584.778ZM875.713 584.443V584.043H875.313V584.443H875.713ZM1022 584.443H1022.4V584.043H1022V584.443ZM1022 730.889V731.289H1022.4V730.889H1022ZM875.713 730.889H875.313V731.289H875.713V730.889ZM875.713 730.554V730.154H875.313V730.554H875.713ZM1022 730.554H1022.4V730.154H1022V730.554ZM1022 877V877.4H1022.4V877H1022ZM875.713 877H875.313V877.4H875.713V877ZM0 0.4H146.287V-0.4H0V0.4ZM145.887 0V146.446H146.687V0H145.887ZM146.287 146.046H0V146.846H146.287V146.046ZM0.4 146.446V0H-0.4V146.446H0.4ZM0 146.511H146.287V145.711H0V146.511ZM145.887 146.111V292.557H146.687V146.111H145.887ZM146.287 292.157H0V292.957H146.287V292.157ZM0.4 292.557V146.111H-0.4V292.557H0.4ZM0 292.622H146.287V291.822H0V292.622ZM145.887 292.222V438.668H146.687V292.222H145.887ZM146.287 438.268H0V439.068H146.287V438.268ZM0.4 438.668V292.222H-0.4V438.668H0.4ZM0 438.732H146.287V437.932H0V438.732ZM145.887 438.332V584.778H146.687V438.332H145.887ZM146.287 584.378H0V585.178H146.287V584.378ZM0.4 584.778V438.332H-0.4V584.778H0.4ZM0 584.843H146.287V584.043H0V584.843ZM145.887 584.443V730.889H146.687V584.443H145.887ZM146.287 730.489H0V731.289H146.287V730.489ZM0.4 730.889V584.443H-0.4V730.889H0.4ZM0 730.954H146.287V730.154H0V730.954ZM145.887 730.554V877H146.687V730.554H145.887ZM146.287 876.6H0V877.4H146.287V876.6ZM0.4 877V730.554H-0.4V877H0.4ZM145.952 0.4H292.239V-0.4H145.952V0.4ZM291.839 0V146.446H292.639V0H291.839ZM292.239 146.046H145.952V146.846H292.239V146.046ZM146.352 146.446V0H145.552V146.446H146.352ZM145.952 146.511H292.239V145.711H145.952V146.511ZM291.839 146.111V292.557H292.639V146.111H291.839ZM292.239 292.157H145.952V292.957H292.239V292.157ZM146.352 292.557V146.111H145.552V292.557H146.352ZM145.952 292.622H292.239V291.822H145.952V292.622ZM291.839 292.222V438.668H292.639V292.222H291.839ZM292.239 438.268H145.952V439.068H292.239V438.268ZM146.352 438.668V292.222H145.552V438.668H146.352ZM145.952 438.732H292.239V437.932H145.952V438.732ZM291.839 438.332V584.778H292.639V438.332H291.839ZM292.239 584.378H145.952V585.178H292.239V584.378ZM146.352 584.778V438.332H145.552V584.778H146.352ZM145.952 584.843H292.239V584.043H145.952V584.843ZM291.839 584.443V730.889H292.639V584.443H291.839ZM292.239 730.489H145.952V731.289H292.239V730.489ZM146.352 730.889V584.443H145.552V730.889H146.352ZM145.952 730.954H292.239V730.154H145.952V730.954ZM291.839 730.554V877H292.639V730.554H291.839ZM292.239 876.6H145.952V877.4H292.239V876.6ZM146.352 877V730.554H145.552V877H146.352ZM291.904 0.4H438.191V-0.4H291.904V0.4ZM437.791 0V146.446H438.591V0H437.791ZM438.191 146.046H291.904V146.846H438.191V146.046ZM292.304 146.446V0H291.504V146.446H292.304ZM291.904 146.511H438.191V145.711H291.904V146.511ZM437.791 146.111V292.557H438.591V146.111H437.791ZM438.191 292.157H291.904V292.957H438.191V292.157ZM292.304 292.557V146.111H291.504V292.557H292.304ZM291.904 292.622H438.191V291.822H291.904V292.622ZM437.791 292.222V438.668H438.591V292.222H437.791ZM438.191 438.268H291.904V439.068H438.191V438.268ZM292.304 438.668V292.222H291.504V438.668H292.304ZM291.904 438.732H438.191V437.932H291.904V438.732ZM437.791 438.332V584.778H438.591V438.332H437.791ZM438.191 584.378H291.904V585.178H438.191V584.378ZM292.304 584.778V438.332H291.504V584.778H292.304ZM291.904 584.843H438.191V584.043H291.904V584.843ZM437.791 584.443V730.889H438.591V584.443H437.791ZM438.191 730.489H291.904V731.289H438.191V730.489ZM292.304 730.889V584.443H291.504V730.889H292.304ZM291.904 730.954H438.191V730.154H291.904V730.954ZM437.791 730.554V877H438.591V730.554H437.791ZM438.191 876.6H291.904V877.4H438.191V876.6ZM292.304 877V730.554H291.504V877H292.304ZM437.857 0.4H584.143V-0.4H437.857V0.4ZM583.743 0V146.446H584.543V0H583.743ZM584.143 146.046H437.857V146.846H584.143V146.046ZM438.257 146.446V0H437.457V146.446H438.257ZM437.857 146.511H584.143V145.711H437.857V146.511ZM583.743 146.111V292.557H584.543V146.111H583.743ZM584.143 292.157H437.857V292.957H584.143V292.157ZM438.257 292.557V146.111H437.457V292.557H438.257ZM437.857 292.622H584.143V291.822H437.857V292.622ZM583.743 292.222V438.668H584.543V292.222H583.743ZM584.143 438.268H437.857V439.068H584.143V438.268ZM438.257 438.668V292.222H437.457V438.668H438.257ZM437.857 438.732H584.143V437.932H437.857V438.732ZM583.743 438.332V584.778H584.543V438.332H583.743ZM584.143 584.378H437.857V585.178H584.143V584.378ZM438.257 584.778V438.332H437.457V584.778H438.257ZM437.857 584.843H584.143V584.043H437.857V584.843ZM583.743 584.443V730.889H584.543V584.443H583.743ZM584.143 730.489H437.857V731.289H584.143V730.489ZM438.257 730.889V584.443H437.457V730.889H438.257ZM437.857 730.954H584.143V730.154H437.857V730.954ZM583.743 730.554V877H584.543V730.554H583.743ZM584.143 876.6H437.857V877.4H584.143V876.6ZM438.257 877V730.554H437.457V877H438.257ZM583.809 0.4H730.096V-0.4H583.809V0.4ZM729.696 0V146.446H730.496V0H729.696ZM730.096 146.046H583.809V146.846H730.096V146.046ZM584.209 146.446V0H583.409V146.446H584.209ZM583.809 146.511H730.096V145.711H583.809V146.511ZM729.696 146.111V292.557H730.496V146.111H729.696ZM730.096 292.157H583.809V292.957H730.096V292.157ZM584.209 292.557V146.111H583.409V292.557H584.209ZM583.809 292.622H730.096V291.822H583.809V292.622ZM729.696 292.222V438.668H730.496V292.222H729.696ZM730.096 438.268H583.809V439.068H730.096V438.268ZM584.209 438.668V292.222H583.409V438.668H584.209ZM583.809 438.732H730.096V437.932H583.809V438.732ZM729.696 438.332V584.778H730.496V438.332H729.696ZM730.096 584.378H583.809V585.178H730.096V584.378ZM584.209 584.778V438.332H583.409V584.778H584.209ZM583.809 584.843H730.096V584.043H583.809V584.843ZM729.696 584.443V730.889H730.496V584.443H729.696ZM730.096 730.489H583.809V731.289H730.096V730.489ZM584.209 730.889V584.443H583.409V730.889H584.209ZM583.809 730.954H730.096V730.154H583.809V730.954ZM729.696 730.554V877H730.496V730.554H729.696ZM730.096 876.6H583.809V877.4H730.096V876.6ZM584.209 877V730.554H583.409V877H584.209ZM729.761 0.4H876.048V-0.4H729.761V0.4ZM875.648 0V146.446H876.448V0H875.648ZM876.048 146.046H729.761V146.846H876.048V146.046ZM730.161 146.446V0H729.361V146.446H730.161ZM729.761 146.511H876.048V145.711H729.761V146.511ZM875.648 146.111V292.557H876.448V146.111H875.648ZM876.048 292.157H729.761V292.957H876.048V292.157ZM730.161 292.557V146.111H729.361V292.557H730.161ZM729.761 292.622H876.048V291.822H729.761V292.622ZM875.648 292.222V438.668H876.448V292.222H875.648ZM876.048 438.268H729.761V439.068H876.048V438.268ZM730.161 438.668V292.222H729.361V438.668H730.161ZM729.761 438.732H876.048V437.932H729.761V438.732ZM875.648 438.332V584.778H876.448V438.332H875.648ZM876.048 584.378H729.761V585.178H876.048V584.378ZM730.161 584.778V438.332H729.361V584.778H730.161ZM729.761 584.843H876.048V584.043H729.761V584.843ZM875.648 584.443V730.889H876.448V584.443H875.648ZM876.048 730.489H729.761V731.289H876.048V730.489ZM730.161 730.889V584.443H729.361V730.889H730.161ZM729.761 730.954H876.048V730.154H729.761V730.954ZM875.648 730.554V877H876.448V730.554H875.648ZM876.048 876.6H729.761V877.4H876.048V876.6ZM730.161 877V730.554H729.361V877H730.161ZM875.713 0.4H1022V-0.4H875.713V0.4ZM1021.6 0V146.446H1022.4V0H1021.6ZM1022 146.046H875.713V146.846H1022V146.046ZM876.113 146.446V0H875.313V146.446H876.113ZM875.713 146.511H1022V145.711H875.713V146.511ZM1021.6 146.111V292.557H1022.4V146.111H1021.6ZM1022 292.157H875.713V292.957H1022V292.157ZM876.113 292.557V146.111H875.313V292.557H876.113ZM875.713 292.622H1022V291.822H875.713V292.622ZM1021.6 292.222V438.668H1022.4V292.222H1021.6ZM1022 438.268H875.713V439.068H1022V438.268ZM876.113 438.668V292.222H875.313V438.668H876.113ZM875.713 438.732H1022V437.932H875.713V438.732ZM1021.6 438.332V584.778H1022.4V438.332H1021.6ZM1022 584.378H875.713V585.178H1022V584.378ZM876.113 584.778V438.332H875.313V584.778H876.113ZM875.713 584.843H1022V584.043H875.713V584.843ZM1021.6 584.443V730.889H1022.4V584.443H1021.6ZM1022 730.489H875.713V731.289H1022V730.489ZM876.113 730.889V584.443H875.313V730.889H876.113ZM875.713 730.954H1022V730.154H875.713V730.954ZM1021.6 730.554V877H1022.4V730.554H1021.6ZM1022 876.6H875.713V877.4H1022V876.6ZM876.113 877V730.554H875.313V877H876.113Z" fill="url(#paint0_radial_699_277)" mask="url(#path-1-inside-1_699_277)"/>
<defs>
<radialGradient id="paint0_radial_699_277" cx="0" cy="0" r="1" gradientUnits="userSpaceOnUse" gradientTransform="translate(554 416) rotate(135) scale(371.231 351.921)">
<stop stop-color="#3531FF"/>
<stop offset="0.358027" stop-color="#31C1FF"/>
<stop offset="0.857796" stop-color="#3531FF" stop-opacity="0"/>
</radialGradient>
</defs>
</svg>
