<svg width="151" height="151" viewBox="0 0 151 151" fill="none" xmlns="http://www.w3.org/2000/svg">
<g clip-path="url(#clip0_348_284)">
<rect x="147.606" y="40.5371" width="3.55294" height="52.1098" transform="rotate(135 147.606 40.5371)" fill="#D4DFFE"/>
<rect x="154.306" y="58.9607" width="3.55295" height="87.6392" transform="rotate(135 154.306 58.9607)" fill="#D4DFFE"/>
<rect x="158.493" y="74.8721" width="3.55295" height="116.063" transform="rotate(135 158.493 74.8721)" fill="#D4DFFE"/>
<rect x="189.059" y="117.163" width="3.55295" height="219.098" transform="rotate(135 189.059 117.163)" fill="#D4DFFE"/>
<rect x="183.197" y="123.024" width="3.55295" height="219.098" transform="rotate(135 183.197 123.024)" fill="#D4DFFE"/>
<rect x="177.335" y="128.886" width="3.55295" height="219.098" transform="rotate(135 177.335 128.886)" fill="#D4DFFE"/>
<rect x="171.473" y="134.749" width="3.55295" height="219.098" transform="rotate(135 171.473 134.749)" fill="#D4DFFE"/>
<rect x="165.611" y="140.611" width="3.55295" height="219.098" transform="rotate(135 165.611 140.611)" fill="#D4DFFE"/>
<rect x="159.749" y="146.473" width="3.55295" height="219.098" transform="rotate(135 159.749 146.473)" fill="#D4DFFE"/>
<rect x="153.887" y="152.335" width="3.55295" height="219.098" transform="rotate(135 153.887 152.335)" fill="#D4DFFE"/>
<rect x="148.025" y="158.197" width="3.55295" height="219.098" transform="rotate(135 148.025 158.197)" fill="#D4DFFE"/>
<rect x="142.163" y="164.059" width="3.55295" height="219.098" transform="rotate(135 142.163 164.059)" fill="#D4DFFE"/>
<rect x="136.301" y="169.921" width="3.55295" height="219.098" transform="rotate(135 136.301 169.921)" fill="#D4DFFE"/>
<rect x="130.439" y="175.783" width="3.55295" height="219.098" transform="rotate(135 130.439 175.783)" fill="#D4DFFE"/>
<rect x="124.577" y="181.645" width="3.55295" height="219.098" transform="rotate(135 124.577 181.645)" fill="#D4DFFE"/>
<rect x="118.715" y="187.507" width="3.55295" height="219.098" transform="rotate(135 118.715 187.507)" fill="#D4DFFE"/>
<rect x="112.853" y="193.369" width="3.55295" height="219.098" transform="rotate(135 112.853 193.369)" fill="#D4DFFE"/>
<rect x="106.99" y="199.231" width="3.55295" height="219.098" transform="rotate(135 106.99 199.231)" fill="#D4DFFE"/>
<rect x="43.3455" y="144.798" width="3.55294" height="52.1098" transform="rotate(135 43.3455 144.798)" fill="#D4DFFE"/>
</g>
<defs>
<clipPath id="clip0_348_284">
<rect width="151" height="151" rx="75.5" fill="white"/>
</clipPath>
</defs>
</svg>
