<svg width="597" height="601" viewBox="0 0 597 601" fill="none" xmlns="http://www.w3.org/2000/svg">
<path fill-rule="evenodd" clip-rule="evenodd" d="M-123.449 95.5411C-87.3926 154.498 -51.1729 188.804 -16.7203 209.812C17.7303 230.82 50.3815 238.508 79.2466 244.274C82.1497 244.854 85.0133 245.414 87.8357 245.967C113.112 250.912 135.082 255.211 152.486 267.118C171.781 280.319 185.523 302.932 191.692 346.452C197.886 390.138 213.191 411.7 232.69 421.794C252.137 431.861 275.632 430.439 297.983 428.486C299.371 428.365 300.754 428.242 302.132 428.119L302.134 428.119L302.135 428.119L302.135 428.119C311.876 427.251 321.34 426.407 330.135 426.493C340.174 426.591 349.285 427.901 356.886 431.733C372.014 439.359 381.412 457.124 379.797 496.212C378.174 535.491 390.904 558.873 410.998 573.178C431.043 587.448 458.342 592.629 485.736 595.711C493.368 596.57 501.039 597.268 508.567 597.953L508.579 597.954L508.581 597.954L508.584 597.955L508.586 597.955L508.587 597.955C514.545 598.497 520.413 599.031 526.1 599.63C539.014 600.99 551.069 602.69 561.408 605.589C571.749 608.489 580.327 612.577 586.322 618.681C592.303 624.77 595.755 632.906 595.778 643.996L596.778 643.994C596.755 632.673 593.22 624.277 587.036 617.98C580.866 611.699 572.099 607.548 561.678 604.626C551.254 601.703 539.129 599.997 526.205 598.636C520.475 598.032 514.602 597.498 508.647 596.956L508.647 596.956L508.644 596.956L508.643 596.956L508.643 596.956C501.133 596.273 493.494 595.577 485.847 594.717C458.46 591.636 431.394 586.471 411.578 572.363C391.81 558.29 379.184 535.262 380.796 496.253C382.416 457.051 373.009 438.74 357.336 430.84C349.536 426.908 340.248 425.592 330.145 425.493C321.296 425.407 311.778 426.255 302.044 427.123C300.665 427.246 299.282 427.369 297.896 427.49C275.502 429.447 252.301 430.82 233.149 420.906C214.048 411.018 198.851 389.823 192.682 346.311C186.49 302.634 172.661 279.71 153.05 266.293C135.465 254.262 113.279 249.923 88.0501 244.989L88.0451 244.988L88.0292 244.985L88.025 244.984L88.0064 244.98C85.189 244.429 82.3336 243.871 79.4425 243.294C50.6067 237.534 18.0967 229.872 -16.1997 208.959C-50.4942 188.047 -86.6075 153.865 -122.596 95.0194C-151.441 47.854 -180.006 21.0068 -207.308 8.76539C-234.632 -3.4861 -260.635 -1.08279 -284.267 10.1304C-307.881 21.3351 -329.125 41.3319 -347 64.2731C-349.14 67.0187 -351.231 69.807 -353.273 72.6278C-356.786 76.6159 -360.192 80.7402 -363.483 84.9644C-365.623 87.71 -367.714 90.4983 -369.756 93.3191C-373.269 97.3072 -376.675 101.432 -379.966 105.656C-382.106 108.401 -384.197 111.19 -386.239 114.01C-389.753 117.998 -393.158 122.123 -396.449 126.347C-398.589 129.093 -400.68 131.881 -402.722 134.702C-406.236 138.69 -409.641 142.814 -412.933 147.038C-415.072 149.784 -417.163 152.572 -419.205 155.393C-422.719 159.381 -426.124 163.505 -429.416 167.73C-431.555 170.475 -433.646 173.263 -435.688 176.084C-439.202 180.072 -442.607 184.197 -445.899 188.421C-448.038 191.166 -450.129 193.955 -452.171 196.776C-455.685 200.764 -459.09 204.888 -462.382 209.112C-480.26 232.058 -494.792 257.978 -504.975 281.073L-504.06 281.476C-493.905 258.444 -479.413 232.597 -461.593 209.727C-460.543 208.379 -459.482 207.043 -458.409 205.717C-470.63 223.885 -480.801 242.939 -488.492 260.381L-487.577 260.785C-478.642 240.521 -466.351 218.078 -451.389 197.401C-449.785 195.581 -448.159 193.791 -446.512 192.032C-456.707 208.039 -465.301 224.478 -472.009 239.69L-471.094 240.094C-463.793 223.536 -454.251 205.524 -442.843 188.208C-440.806 186.134 -438.737 184.112 -436.638 182.147C-443.981 194.653 -450.321 207.195 -455.526 218.999L-454.611 219.402C-449.023 206.73 -442.123 193.205 -434.078 179.794C-431.776 177.715 -429.439 175.707 -427.068 173.777C-431.545 182.13 -435.55 190.385 -439.043 198.308L-438.128 198.711C-434.355 190.154 -429.983 181.208 -425.065 172.171C-422.553 170.19 -420.005 168.297 -417.422 166.504C-419.24 170.263 -420.954 173.975 -422.56 177.616L-421.645 178.02C-419.82 173.881 -417.854 169.65 -415.755 165.363C-410.386 161.744 -404.87 158.554 -399.22 155.873C-375.817 144.768 -350.122 142.4 -323.098 154.517C-296.053 166.644 -267.62 193.304 -238.83 240.38C-202.774 299.337 -166.554 333.643 -132.101 354.652C-97.6508 375.659 -64.9996 383.348 -36.1345 389.113C-33.2315 389.693 -30.3678 390.253 -27.5455 390.806C-2.26916 395.751 19.7009 400.05 37.1046 411.957C56.3996 425.158 70.1414 447.771 76.3112 491.291C82.5045 534.977 97.8103 556.539 117.309 566.633C136.756 576.7 160.251 575.278 182.602 573.325C183.384 573.257 184.165 573.188 184.944 573.119C185.547 573.065 186.149 573.012 186.751 572.958L186.753 572.958C196.494 572.09 205.958 571.246 214.754 571.332C224.793 571.43 233.904 572.74 241.504 576.572C256.632 584.198 266.031 601.963 264.416 641.051C262.793 680.33 275.523 703.712 295.617 718.017C315.662 732.287 342.961 737.468 370.354 740.55C377.99 741.409 385.666 742.108 393.197 742.793L393.2 742.793L393.201 742.793C399.16 743.336 405.03 743.87 410.719 744.469C423.632 745.829 435.688 747.529 446.027 750.428C456.368 753.328 464.945 757.416 470.941 763.52C476.922 769.609 480.374 777.745 480.397 788.835L481.397 788.833C481.374 777.512 477.839 769.116 471.655 762.819C465.485 756.538 456.718 752.387 446.297 749.465C435.873 746.542 423.748 744.836 410.824 743.475C405.094 742.871 399.222 742.337 393.267 741.795L393.263 741.795L393.261 741.795C385.751 741.112 378.112 740.416 370.466 739.556C343.078 736.475 316.013 731.31 296.197 717.202C276.429 703.129 263.803 680.101 265.415 641.092C267.035 601.89 257.628 583.579 241.955 575.679C234.155 571.747 224.867 570.431 214.764 570.332C205.915 570.246 196.397 571.094 186.662 571.962C185.284 572.085 183.901 572.208 182.515 572.329C160.121 574.286 136.92 575.659 117.768 565.745C98.6673 555.857 83.4698 534.662 77.3013 491.15C71.1092 447.473 57.2801 424.549 37.6693 411.132C20.0842 399.101 -2.1018 394.762 -27.331 389.828L-27.3361 389.827C-30.166 389.274 -33.0343 388.713 -35.9387 388.133C-64.7744 382.373 -97.2844 374.711 -131.581 353.798C-165.875 332.886 -201.989 298.704 -237.977 239.858C-266.822 192.693 -295.388 165.846 -322.689 153.604C-350.013 141.353 -376.016 143.756 -399.648 154.969C-404.842 157.434 -409.92 160.323 -414.874 163.575C-412.89 159.58 -410.791 155.539 -408.582 151.48C-406.07 149.498 -403.522 147.606 -400.939 145.812C-402.757 149.572 -404.471 153.284 -406.077 156.925L-405.161 157.328C-403.336 153.189 -401.371 148.959 -399.272 144.672C-393.903 141.053 -388.386 137.862 -382.737 135.182C-359.334 124.077 -333.639 121.709 -306.615 133.826C-279.57 145.952 -251.137 172.613 -222.347 219.689C-186.291 278.645 -150.071 312.952 -115.618 333.96C-81.1678 354.967 -48.5166 362.656 -19.6515 368.422C-16.7484 369.002 -13.8848 369.562 -11.0624 370.114C14.2139 375.06 36.1839 379.359 53.5877 391.266C72.8826 404.467 86.6245 427.079 92.7942 470.599C98.9875 514.285 114.293 535.848 133.792 545.942C153.239 556.009 176.734 554.587 199.085 552.634C200.465 552.514 201.84 552.391 203.21 552.269L203.234 552.267L203.236 552.267C212.977 551.398 222.441 550.555 231.237 550.641C241.276 550.739 250.387 552.049 257.988 555.88C273.115 563.506 282.514 581.272 280.899 620.359C279.276 659.639 292.006 683.02 312.1 697.325C332.145 711.596 359.444 716.777 386.837 719.859C394.473 720.718 402.148 721.416 409.679 722.102L409.68 722.102L409.683 722.102L409.684 722.102C415.643 722.645 421.513 723.179 427.202 723.778C440.115 725.138 452.171 726.838 462.51 729.737C472.851 732.637 481.428 736.724 487.424 742.829C493.405 748.918 496.857 757.054 496.88 768.144L497.88 768.142C497.857 756.821 494.322 748.424 488.138 742.128C481.968 735.847 473.201 731.696 462.78 728.774C452.356 725.851 440.231 724.145 427.307 722.784C421.579 722.18 415.708 721.646 409.756 721.105L409.75 721.104L409.746 721.104L409.744 721.103L409.741 721.103C402.233 720.42 394.594 719.725 386.949 718.865C359.561 715.784 332.496 710.618 312.68 696.511C292.912 682.438 280.286 659.41 281.898 620.401C283.518 581.199 274.111 562.888 258.438 554.987C250.638 551.056 241.35 549.739 231.247 549.641C222.398 549.554 212.88 550.403 203.145 551.271C201.767 551.394 200.384 551.517 198.998 551.638C176.604 553.594 153.403 554.968 134.251 545.054C115.15 535.166 99.9529 513.971 93.7843 470.459C87.5922 426.781 73.7631 403.858 54.1523 390.441C36.5672 378.41 14.3812 374.071 -10.848 369.137L-10.8531 369.136C-13.683 368.582 -16.5513 368.021 -19.4556 367.441C-48.2914 361.681 -80.8014 354.019 -115.098 333.106C-149.392 312.195 -185.506 278.012 -221.494 219.167C-250.339 172.002 -278.905 145.155 -306.206 132.913C-333.53 120.662 -359.533 123.065 -383.165 134.278C-388.359 136.742 -393.437 139.632 -398.391 142.884C-396.407 138.889 -394.308 134.848 -392.099 130.788C-389.587 128.807 -387.039 126.915 -384.456 125.121C-386.274 128.88 -387.988 132.592 -389.593 136.234L-388.678 136.637C-386.853 132.498 -384.888 128.268 -382.789 123.98C-377.42 120.361 -371.903 117.171 -366.254 114.49C-342.851 103.386 -317.156 101.018 -290.132 113.134C-263.087 125.261 -234.654 151.922 -205.864 198.998C-169.808 257.954 -133.588 292.261 -99.1354 313.269C-64.6848 334.276 -32.0336 341.965 -3.1685 347.731C-0.265419 348.311 2.5982 348.871 5.42058 349.423C30.6969 354.369 52.667 358.668 70.0707 370.575C89.3656 383.776 103.107 406.388 109.277 449.908C115.471 493.594 130.776 515.157 150.275 525.25C169.722 535.318 193.217 533.896 215.568 531.943C216.956 531.822 218.339 531.698 219.717 531.576L219.719 531.575C229.46 530.707 238.924 529.864 247.72 529.949C257.759 530.047 266.87 531.357 274.471 535.189C289.598 542.815 298.997 560.581 297.382 599.668C295.759 638.948 308.489 662.329 328.583 676.634C348.628 690.905 375.927 696.086 403.32 699.167C410.956 700.026 418.631 700.725 426.162 701.41L426.163 701.411L426.166 701.411L426.167 701.411C432.126 701.953 437.996 702.488 443.685 703.087C456.598 704.447 468.654 706.146 478.993 709.045C489.334 711.945 497.911 716.033 503.907 722.137C509.888 728.226 513.34 736.362 513.363 747.453L514.363 747.451C514.34 736.13 510.805 727.733 504.621 721.437C498.451 715.155 489.684 711.005 479.263 708.083C468.839 705.16 456.714 703.453 443.79 702.092C438.066 701.49 432.2 700.956 426.252 700.415L426.239 700.413L426.233 700.413L426.229 700.412L426.227 700.412L426.224 700.412L426.21 700.411C418.706 699.728 411.073 699.033 403.432 698.174C376.044 695.092 348.979 689.927 329.163 675.82C309.395 661.747 296.769 638.719 298.381 599.709C300.001 560.508 290.594 542.197 274.921 534.296C267.121 530.364 257.833 529.048 247.73 528.949C238.881 528.863 229.363 529.712 219.628 530.579C218.25 530.702 216.867 530.826 215.481 530.947C193.087 532.903 169.886 534.276 150.734 524.362C131.633 514.474 116.436 493.279 110.267 449.768C104.075 406.09 90.2461 383.166 70.6353 369.749C53.0502 357.718 30.8642 353.379 5.63502 348.445L5.62996 348.445L5.62529 348.444C2.79692 347.89 -0.0698358 347.33 -2.97262 346.75C-31.8084 340.99 -64.3184 333.328 -98.6148 312.415C-132.909 291.503 -169.023 257.321 -205.011 198.476C-233.856 151.31 -262.421 124.463 -289.723 112.222C-317.047 99.9703 -343.05 102.374 -366.682 113.587C-371.876 116.051 -376.954 118.94 -381.908 122.193C-379.924 118.197 -377.825 114.156 -375.616 110.097C-367.375 103.596 -358.741 98.0552 -349.77 93.799C-326.368 82.6946 -300.673 80.3264 -273.649 92.443C-246.604 104.57 -218.171 131.23 -189.381 178.306C-153.325 237.263 -117.105 271.569 -82.6524 292.578C-48.2018 313.585 -15.5506 321.274 13.3145 327.039C16.2176 327.619 19.0812 328.18 21.9036 328.732C47.1799 333.678 69.15 337.976 86.5537 349.883C105.849 363.084 119.591 385.697 125.76 429.217C131.954 472.903 147.259 494.466 166.758 504.559C186.205 514.626 209.7 513.204 232.051 511.252C233.439 511.13 234.822 511.007 236.2 510.884L236.202 510.884C245.943 510.016 255.407 509.172 264.203 509.258C274.242 509.356 283.353 510.666 290.954 514.498C306.081 522.124 315.48 539.889 313.865 578.977C312.242 618.257 324.972 641.638 345.066 655.943C365.111 670.213 392.41 675.394 419.804 678.476C427.439 679.335 435.114 680.034 442.645 680.719L442.646 680.719L442.649 680.72L442.65 680.72C448.609 681.262 454.479 681.796 460.168 682.395C473.082 683.755 485.137 685.455 495.476 688.354C505.817 691.254 514.394 695.342 520.39 701.446C526.371 707.535 529.823 715.671 529.846 726.761L530.846 726.759C530.823 715.439 527.288 707.042 521.104 700.745C514.934 694.464 506.167 690.314 495.746 687.391C485.322 684.468 473.197 682.762 460.273 681.401C454.542 680.798 448.669 680.263 442.713 679.721L442.712 679.721L442.71 679.721L442.707 679.721L442.693 679.719C435.189 679.037 427.556 678.342 419.915 677.482C392.527 674.401 365.462 669.236 345.646 655.128C325.878 641.055 313.252 618.027 314.864 579.018C316.484 539.817 307.077 521.506 291.404 513.605C283.604 509.673 274.316 508.357 264.213 508.258C255.364 508.172 245.846 509.02 236.111 509.888C234.733 510.011 233.35 510.134 231.964 510.255C209.57 512.212 186.369 513.585 167.217 503.671C148.116 493.783 132.919 472.588 126.75 429.076C120.558 385.399 106.729 362.475 87.1183 349.058C69.5333 337.027 47.3473 332.688 22.118 327.754L22.113 327.753L22.1083 327.752C19.2799 327.199 16.4132 326.639 13.5104 326.059C-15.3254 320.299 -47.8354 312.637 -82.1318 291.724C-116.426 270.812 -152.54 236.63 -188.528 177.785C-217.373 130.619 -245.938 103.772 -273.24 91.5306C-300.564 79.2791 -326.567 81.6824 -350.199 92.8955C-358.581 96.8724 -366.664 101.957 -374.403 107.888C-372.403 104.272 -370.316 100.646 -368.146 97.0284C-357.256 87.1952 -345.588 78.9441 -333.287 73.1077C-309.885 62.0033 -284.19 59.6351 -257.166 71.7517C-230.121 83.8784 -201.688 110.539 -172.898 157.615C-136.842 216.571 -100.622 250.878 -66.1694 271.886C-31.7187 292.893 0.932435 300.582 29.7975 306.348C32.7006 306.928 35.5642 307.488 38.3866 308.04C63.6629 312.986 85.633 317.285 103.037 329.192C122.332 342.393 136.074 365.006 142.243 408.526C148.437 452.211 163.742 473.774 183.241 483.868C202.688 493.935 226.183 492.513 248.534 490.56C249.922 490.439 251.305 490.316 252.683 490.193L252.685 490.193C262.426 489.324 271.89 488.481 280.686 488.567C290.725 488.665 299.836 489.975 307.437 493.806C322.564 501.433 331.963 519.198 330.348 558.285C328.725 597.565 341.455 620.947 361.549 635.252C381.594 649.522 408.893 654.703 436.287 657.785C443.918 658.643 451.588 659.342 459.116 660.027L459.118 660.027L459.13 660.028L459.132 660.028L459.134 660.028L459.137 660.029L459.139 660.029C465.097 660.571 470.964 661.105 476.651 661.704C489.565 663.064 501.62 664.764 511.959 667.663C522.3 670.563 530.877 674.651 536.873 680.755C542.854 686.844 546.306 694.98 546.329 706.07L547.329 706.068C547.306 694.747 543.771 686.351 537.587 680.054C531.417 673.773 522.65 669.622 512.229 666.7C501.805 663.777 489.68 662.071 476.756 660.71C471.027 660.106 465.154 659.572 459.2 659.03L459.198 659.03L459.195 659.03L459.194 659.03C451.684 658.346 444.045 657.651 436.398 656.791C409.011 653.71 381.945 648.544 362.129 634.437C342.361 620.364 329.735 597.336 331.347 558.327C332.967 519.125 323.56 500.814 307.887 492.913C300.087 488.982 290.799 487.665 280.696 487.567C271.847 487.48 262.329 488.329 252.594 489.197C251.216 489.32 249.833 489.443 248.447 489.564C226.053 491.52 202.852 492.894 183.7 482.98C164.599 473.092 149.402 451.897 143.233 408.385C137.041 364.708 123.212 341.784 103.601 328.367C86.0163 316.336 63.8303 311.997 38.6011 307.063C35.7694 306.509 32.8995 305.948 29.9934 305.367C1.15764 299.608 -31.3523 291.946 -65.6488 271.033C-99.9433 250.121 -136.057 215.938 -172.045 157.093C-200.89 109.928 -229.455 83.0807 -256.757 70.8393C-284.081 58.5878 -310.084 60.9911 -333.716 72.2042C-345.207 77.6566 -356.137 85.1908 -366.39 94.1331C-364.464 90.9918 -362.476 87.8606 -360.428 84.7518C-347.115 71.2026 -332.472 59.8507 -316.804 52.4164C-293.402 41.312 -267.707 38.9438 -240.683 51.0604C-213.637 63.1871 -185.205 89.8478 -156.415 136.924C-120.359 195.88 -84.1389 230.187 -49.6864 251.195C-15.2357 272.202 17.4155 279.891 46.2806 285.657C49.1836 286.237 52.0473 286.797 54.8696 287.349C80.1459 292.295 102.116 296.594 119.52 308.501C138.815 321.702 152.557 344.314 158.726 387.834C164.92 431.52 180.225 453.083 199.724 463.176C219.171 473.244 242.666 471.822 265.017 469.869C266.405 469.748 267.788 469.624 269.166 469.502L269.168 469.502C278.909 468.633 288.373 467.79 297.169 467.876C307.208 467.974 316.319 469.283 323.92 473.115C339.047 480.741 348.446 498.507 346.831 537.594C345.208 576.874 357.938 600.255 378.032 614.56C398.077 628.831 425.376 634.012 452.77 637.094C460.401 637.952 468.072 638.65 475.599 639.336L475.6 639.336L475.601 639.336L475.613 639.337L475.615 639.337L475.617 639.337L475.62 639.337L475.622 639.338C481.58 639.88 487.447 640.414 493.134 641.013C506.048 642.373 518.103 644.072 528.442 646.972C538.783 649.871 547.361 653.959 553.356 660.064C559.337 666.153 562.789 674.289 562.812 685.379L563.812 685.377C563.789 674.056 560.254 665.659 554.07 659.363C547.9 653.082 539.133 648.931 528.712 646.009C518.288 643.086 506.163 641.379 493.239 640.018C487.51 639.415 481.637 638.881 475.683 638.339L475.681 638.339L475.678 638.339L475.677 638.338C468.167 637.655 460.528 636.96 452.881 636.1C425.494 633.019 398.428 627.853 378.612 613.746C358.844 599.673 346.218 576.645 347.83 537.635C349.45 498.434 340.043 480.123 324.37 472.222C316.57 468.29 307.282 466.974 297.179 466.876C288.33 466.789 278.812 467.638 269.077 468.506C267.699 468.628 266.316 468.752 264.93 468.873C242.536 470.829 219.335 472.202 200.183 462.288C181.082 452.401 165.885 431.206 159.716 387.694C153.524 344.016 139.695 321.093 120.084 307.676C102.499 295.644 80.3133 291.306 55.0841 286.372C52.2525 285.818 49.3825 285.257 46.4764 284.676C17.6407 278.916 -14.8693 271.254 -49.1658 250.341C-83.4603 229.429 -119.574 195.247 -155.562 136.402C-184.407 89.2366 -212.972 62.3894 -240.274 50.148C-267.598 37.8965 -293.601 40.2998 -317.233 51.513C-331.647 58.3521 -345.178 68.467 -357.598 80.5278C-355.933 78.0831 -354.23 75.6561 -352.491 73.253C-336.991 55.6671 -319.418 40.7862 -300.321 31.7251C-276.918 20.6208 -251.224 18.2525 -224.2 30.3692C-197.154 42.4959 -168.722 69.1566 -139.932 116.232C-103.876 175.189 -67.6559 209.496 -33.2033 230.504C1.2473 251.511 33.8985 259.2 62.7636 264.965C65.6667 265.545 68.5303 266.106 71.3527 266.658C96.629 271.604 118.599 275.903 136.003 287.81C155.298 301.011 169.04 323.623 175.209 367.143C181.403 410.829 196.708 432.392 216.207 442.485C235.654 452.553 259.149 451.13 281.5 449.178C282.888 449.057 284.271 448.933 285.649 448.81L285.651 448.81C295.392 447.942 304.856 447.098 313.652 447.184C323.691 447.282 332.802 448.592 340.403 452.424C355.53 460.05 364.929 477.815 363.314 516.903C361.691 556.183 374.421 579.564 394.515 593.869C414.56 608.139 441.859 613.32 469.253 616.402C476.884 617.261 484.554 617.959 492.082 618.644L492.084 618.644L492.096 618.646L492.098 618.646L492.102 618.646L492.11 618.647C498.066 619.189 503.932 619.723 509.617 620.322C522.531 621.681 534.586 623.381 544.925 626.28C555.266 629.18 563.844 633.268 569.839 639.372C575.82 645.461 579.272 653.597 579.295 664.687L580.295 664.685C580.272 653.365 576.737 644.968 570.553 638.671C564.383 632.39 555.616 628.24 545.195 625.317C534.771 622.394 522.646 620.688 509.722 619.327C504.003 618.725 498.141 618.191 492.197 617.65L492.18 617.649L492.17 617.648L492.167 617.648L492.164 617.647L492.161 617.647L492.16 617.647C484.651 616.964 477.011 616.269 469.364 615.408C441.977 612.327 414.911 607.162 395.095 593.054C375.327 578.982 362.701 555.953 364.313 516.944C365.933 477.743 356.526 459.432 340.853 451.531C333.053 447.599 323.765 446.283 313.662 446.184C304.813 446.098 295.295 446.946 285.561 447.814C284.182 447.937 282.799 448.06 281.413 448.182C259.019 450.138 235.818 451.511 216.666 441.597C197.565 431.709 182.368 410.514 176.199 367.003C170.007 323.325 156.178 300.401 136.567 286.984C118.982 274.953 96.7963 270.614 71.5671 265.68L71.5572 265.678C68.7288 265.125 65.8622 264.565 62.9595 263.985C34.1237 258.225 1.61371 250.563 -32.6827 229.65C-66.9773 208.738 -103.091 174.556 -139.079 115.711C-167.924 68.5453 -196.489 41.6981 -223.791 29.4567C-251.115 17.2052 -277.118 19.6085 -300.75 30.8217C-317.272 38.6609 -332.633 50.8037 -346.492 65.2476C-346.398 65.1276 -346.305 65.0076 -346.212 64.8878C-328.388 42.0133 -307.259 22.1466 -283.838 11.0338C-260.435 -0.0705351 -234.741 -2.43879 -207.717 9.67786C-180.671 21.8046 -152.239 48.4653 -123.449 95.5411ZM-416.536 164.683C-414.658 160.855 -412.673 156.981 -410.585 153.086C-412.956 155.015 -415.293 157.023 -417.595 159.102C-419.765 162.72 -421.852 166.346 -423.852 169.961C-421.446 168.118 -419.007 166.356 -416.536 164.683ZM-425.845 171.513C-424.022 168.168 -422.124 164.811 -420.155 161.456C-422.254 163.421 -424.323 165.443 -426.36 167.517C-428.408 170.626 -430.397 173.757 -432.322 176.898C-430.192 175.04 -428.033 173.243 -425.845 171.513ZM-434.859 179.151C-433.292 176.541 -431.681 173.936 -430.029 171.341C-431.676 173.099 -433.302 174.89 -434.906 176.709C-436.645 179.113 -438.348 181.54 -440.013 183.984C-438.316 182.336 -436.597 180.724 -434.859 179.151ZM-443.625 187.577C-443.063 186.725 -442.497 185.875 -441.926 185.026C-442.999 186.351 -444.06 187.688 -445.11 189.035C-445.203 189.155 -445.296 189.275 -445.39 189.395C-444.804 188.785 -444.216 188.179 -443.625 187.577ZM-427.142 166.886C-427.733 167.488 -428.321 168.094 -428.907 168.704C-428.813 168.584 -428.72 168.464 -428.627 168.344C-427.577 166.997 -426.516 165.66 -425.443 164.335C-426.014 165.183 -426.58 166.034 -427.142 166.886ZM-418.376 158.46C-420.114 160.032 -421.833 161.644 -423.53 163.293C-421.865 160.848 -420.162 158.421 -418.423 156.018C-416.819 154.199 -415.193 152.408 -413.546 150.65C-415.198 153.244 -416.809 155.85 -418.376 158.46ZM-409.362 150.822C-411.55 152.552 -413.709 154.349 -415.839 156.207C-413.914 153.066 -411.925 149.934 -409.877 146.826C-407.839 144.752 -405.771 142.729 -403.672 140.765C-405.641 144.119 -407.539 147.477 -409.362 150.822ZM-400.053 143.992C-402.524 145.665 -404.963 147.426 -407.369 149.27C-405.369 145.655 -403.282 142.029 -401.112 138.411C-398.81 136.332 -396.473 134.324 -394.102 132.394C-396.19 136.29 -398.175 140.163 -400.053 143.992ZM-383.57 123.301C-381.692 119.472 -379.707 115.598 -377.619 111.703C-379.99 113.633 -382.327 115.641 -384.629 117.72C-386.799 121.338 -388.886 124.964 -390.886 128.579C-388.48 126.735 -386.041 124.973 -383.57 123.301ZM-392.879 130.13C-391.056 126.785 -389.158 123.428 -387.189 120.073C-389.288 122.038 -391.356 124.061 -393.394 126.134C-395.442 129.243 -397.431 132.374 -399.356 135.516C-397.226 133.658 -395.067 131.861 -392.879 130.13ZM-401.893 137.769C-400.326 135.159 -398.715 132.553 -397.063 129.958C-398.71 131.717 -400.336 133.507 -401.94 135.327C-403.679 137.73 -405.382 140.157 -407.047 142.602C-405.35 140.953 -403.631 139.341 -401.893 137.769ZM-410.659 146.194C-410.097 145.342 -409.531 144.492 -408.96 143.644C-410.033 144.969 -411.094 146.306 -412.144 147.653C-412.237 147.773 -412.33 147.893 -412.424 148.013C-411.838 147.402 -411.25 146.796 -410.659 146.194ZM-394.176 125.503C-394.767 126.105 -395.355 126.711 -395.941 127.321C-395.847 127.201 -395.754 127.082 -395.661 126.962C-394.611 125.614 -393.55 124.278 -392.477 122.952C-393.048 123.801 -393.614 124.651 -394.176 125.503ZM-385.41 117.078C-387.148 118.65 -388.867 120.262 -390.564 121.91C-388.899 119.466 -387.196 117.039 -385.457 114.636C-383.853 112.816 -382.227 111.025 -380.58 109.267C-382.232 111.862 -383.843 114.467 -385.41 117.078ZM-376.396 109.439C-378.584 111.169 -380.743 112.967 -382.873 114.824C-380.947 111.683 -378.959 108.552 -376.911 105.443C-374.873 103.369 -372.805 101.347 -370.706 99.382C-372.675 102.737 -374.573 106.094 -376.396 109.439ZM-368.927 96.3863C-367.36 93.7762 -365.749 91.1704 -364.097 88.5759C-365.744 90.3341 -367.37 92.1247 -368.974 93.9443C-370.713 96.3474 -372.416 98.7744 -374.081 101.219C-372.384 99.5706 -370.665 97.9586 -368.927 96.3863ZM-377.693 104.812C-377.131 103.96 -376.565 103.109 -375.994 102.261C-377.067 103.586 -378.128 104.923 -379.178 106.27C-379.271 106.39 -379.364 106.51 -379.458 106.63C-378.872 106.02 -378.284 105.414 -377.693 104.812ZM-361.21 84.1204C-361.801 84.7224 -362.389 85.3286 -362.975 85.9389C-362.881 85.8189 -362.788 85.6989 -362.695 85.579C-361.645 84.2318 -360.584 82.8949 -359.511 81.5697C-360.082 82.4181 -360.648 83.2684 -361.21 84.1204Z" fill="white"/>
</svg>
