<svg width="429" height="434" viewBox="0 0 429 434" fill="none" xmlns="http://www.w3.org/2000/svg">
<path fill-rule="evenodd" clip-rule="evenodd" d="M30.0145 278.939C30.4924 295.515 43.5753 308.932 60.013 309.939C60.4908 326.516 73.5749 339.933 90.0138 340.939C90.4916 357.515 103.575 370.932 120.013 371.939C120.491 388.516 133.575 401.933 150.014 402.939C150.511 420.178 164.641 434 182 434L397 434C414.673 434 429 419.673 429 402L429 187C429 169.994 415.734 156.086 398.986 155.061C398.508 138.485 385.425 125.068 368.987 124.061C368.509 107.484 355.425 94.0671 338.986 93.0606C338.508 76.485 325.425 63.0683 308.987 62.0608C308.51 45.4842 295.425 32.0669 278.987 31.0606C278.49 13.822 264.359 3.18969e-05 247 2.83653e-05L32 0C14.3269 -2.33164e-06 4.0688e-05 14.3269 3.99155e-05 32L0 247C-7.43371e-07 264.006 13.2662 277.914 30.0145 278.939ZM397 433L182 433C165.209 433 151.536 419.65 151.016 402.985C151.342 402.995 151.67 403 151.999 403L366.999 403C384.672 403 398.999 388.673 398.999 371L398.999 156.063C415.189 157.094 428 170.551 428 187L428 402C428 419.121 414.121 433 397 433ZM397.999 156.016L397.999 371C397.999 388.121 384.12 402 366.999 402L151.999 402C151.665 402 151.332 401.995 151 401.984V372L337 372C354.673 372 369 357.673 369 340L369 156H397C397.335 156 397.668 156.005 397.999 156.016ZM150 341V371H122C121.665 371 121.332 370.995 120.999 370.984V341H150ZM150 340V310H120.999L120.999 340H150ZM150 279V309H120.999V279L150 279ZM151 279V309L277.001 309C294.122 309 308.001 295.121 308.001 278L308.001 156H279V247C279 264.673 264.673 279 247 279H151ZM278 156V247C278 264.121 264.121 278 247 278H151L151 187C151 169.879 164.879 156 182 156L278 156ZM278 155L182 155C164.327 155 150 169.327 150 187L150 278L120.999 278L120.999 156C120.999 138.879 134.878 125 151.999 125L278 125L278 155ZM279 155H308.001V125L279 125L279 155ZM279 124L308.001 124V94H279V124ZM278 124V94L122 94C104.879 94 91.0003 107.879 91.0003 125L91.0002 278H119.999L119.999 156C119.999 138.327 134.326 124 151.999 124L278 124ZM119.999 279H91.0002V309H119.999V279ZM90.0002 278L90.0003 125C90.0003 107.327 104.327 93 122 93L278 93V63L91.9995 63C74.8787 63 60.9995 76.8792 60.9995 94L60.9995 278H90.0002ZM60.9995 279H90.0002V309H62.001C61.6659 309 61.332 308.995 60.9995 308.984L60.9995 279ZM59.9995 278L59.9995 94C59.9995 76.3269 74.3264 62 91.9995 62L278 62V32.0158C277.668 32.0053 277.335 32 277.001 32L62.001 32C44.8802 32 31.001 45.8792 31.001 63L31.001 277.984C31.3327 277.995 31.6657 278 32 278H59.9995ZM31.0163 278.985C31.343 278.995 31.6709 279 32 279H59.9995L59.9995 308.936C44.1358 307.926 31.5157 294.983 31.0163 278.985ZM30.001 277.937L30.001 63C30.001 45.3269 44.3279 31 62.001 31L277.001 31C277.33 31 277.658 31.005 277.985 31.0149C277.464 14.3499 263.791 1.00003 247 1.00003L32 1C14.8792 0.999998 1.00004 14.8791 1.00004 32L1 247C0.999999 263.449 13.8117 276.906 30.001 277.937ZM279 32.0634C294.865 33.0732 307.486 46.0165 307.986 62.0149C307.658 62.005 307.329 62 307 62L279 62V32.0634ZM279 63L307 63C307.335 63 307.668 63.0053 308.001 63.0159V93H279V63ZM277.001 310L151 310V340L307 340C324.12 340 338 326.121 338 309L338 156H309.001L309.001 278C309.001 295.673 294.674 310 277.001 310ZM338 155H309.001V125L338 125V155ZM338 124L309.001 124V94L337 94C337.335 94 337.668 94.0053 338 94.0158V124ZM337 93L309.001 93V63.0636C324.865 64.0745 337.485 77.0173 337.984 93.0149C337.657 93.005 337.329 93 337 93ZM90.0002 339.937C74.1355 338.927 61.5143 325.983 61.0149 309.985C61.3423 309.995 61.6711 310 62.001 310H90.0002L90.0002 339.937ZM91.0002 339.984L91.0002 310H119.999L119.999 340H91.9995C91.6652 340 91.332 339.995 91.0002 339.984ZM151 341L307 341C324.673 341 339 326.673 339 309L339 156H368L368 340C368 357.121 354.121 371 337 371L151 371V341ZM339 155H368V125.016C367.668 125.005 367.334 125 366.999 125H339V155ZM339 124H366.999C367.329 124 367.658 124.005 367.985 124.015C367.486 108.017 354.864 95.0733 339 94.0635V124ZM91.0156 340.985C91.515 356.983 104.135 369.926 119.999 370.936V341H91.9995C91.8299 341 91.6605 340.999 91.4915 340.996C91.3326 340.994 91.1739 340.99 91.0156 340.985ZM122 372C121.67 372 121.342 371.995 121.015 371.985C121.514 387.984 134.135 400.927 150 401.937V372H122ZM369 155V125.064C384.864 126.074 397.485 139.017 397.984 155.015C397.657 155.005 397.329 155 397 155H369Z" fill="white" fill-opacity="0.39"/>
</svg>
