<svg width="180" height="53" viewBox="0 0 180 53" fill="none" xmlns="http://www.w3.org/2000/svg">
<path fill-rule="evenodd" clip-rule="evenodd" d="M48.0332 13.8377V27.3542H54.7427C56.4908 27.3542 57.8083 27.0324 58.6952 26.3888C59.5821 25.7451 60.0255 24.844 60.0255 23.6855C60.0255 22.9002 59.8456 22.2437 59.4857 21.7159C59.1386 21.1881 58.6631 20.7891 58.0589 20.5188C57.9054 20.4468 57.7468 20.3839 57.5833 20.3302C58.1008 20.0518 58.5165 19.677 58.8302 19.2057C59.1643 18.6908 59.3314 18.0729 59.3314 17.352C59.3314 16.2836 58.9073 15.434 58.0589 14.8032C57.2106 14.1596 55.9767 13.8377 54.3571 13.8377H48.0332ZM54.5885 25.3847H50.5396V21.4842H54.5885C55.5268 21.4842 56.2466 21.6451 56.7479 21.9669C57.2492 22.2759 57.4998 22.7651 57.4998 23.4345C57.4998 24.1167 57.2492 24.6123 56.7479 24.9213C56.2466 25.2302 55.5268 25.3847 54.5885 25.3847ZM50.5396 19.534V15.8073H54.0872C54.9612 15.8073 55.6296 15.9618 56.0924 16.2707C56.5679 16.5797 56.8057 17.0495 56.8057 17.6803C56.8057 18.2982 56.5679 18.7616 56.0924 19.0706C55.6296 19.3795 54.9612 19.534 54.0872 19.534H50.5396Z" fill="#1E1A1A"/>
<path d="M62.7005 13.8377V27.3542H72.2635V25.2302H65.207V13.8377H62.7005Z" fill="#1E1A1A"/>
<path fill-rule="evenodd" clip-rule="evenodd" d="M77.4102 27.026C78.2971 27.3735 79.2675 27.5473 80.3215 27.5473C81.3626 27.5473 82.3202 27.3735 83.1942 27.026C84.0811 26.6784 84.8523 26.1957 85.5079 25.5778C86.1634 24.9599 86.6711 24.2261 87.031 23.3765C87.3909 22.5269 87.5709 21.6001 87.5709 20.596C87.5709 19.5919 87.3909 18.6715 87.031 17.8348C86.6711 16.9852 86.1634 16.2514 85.5079 15.6335C84.8523 15.0027 84.0811 14.5136 83.1942 14.166C82.3202 13.8184 81.3562 13.6447 80.3022 13.6447C79.2611 13.6447 78.2971 13.8184 77.4102 14.166C76.5233 14.5136 75.7521 15.0027 75.0965 15.6335C74.441 16.2514 73.9333 16.9852 73.5734 17.8348C73.2135 18.6715 73.0335 19.5919 73.0335 20.596C73.0335 21.6001 73.2135 22.5269 73.5734 23.3765C73.9333 24.2133 74.441 24.947 75.0965 25.5778C75.7521 26.1957 76.5233 26.6784 77.4102 27.026ZM82.1917 24.9985C81.6133 25.2302 80.9834 25.3461 80.3022 25.3461C79.621 25.3461 78.9911 25.2302 78.4127 24.9985C77.8343 24.7668 77.333 24.4385 76.9089 24.0137C76.4847 23.5761 76.1505 23.0676 75.9063 22.4883C75.6749 21.909 75.5593 21.2783 75.5593 20.596C75.5593 19.9009 75.6749 19.2701 75.9063 18.7037C76.1505 18.1244 76.4847 17.6224 76.9089 17.1976C77.3459 16.7599 77.8472 16.4252 78.4127 16.1935C78.9911 15.9618 79.621 15.8459 80.3022 15.8459C80.9834 15.8459 81.6133 15.9618 82.1917 16.1935C82.7701 16.4252 83.2714 16.7599 83.6955 17.1976C84.1197 17.6224 84.4475 18.1244 84.6788 18.7037C84.923 19.2701 85.0451 19.9009 85.0451 20.596C85.0451 21.2911 84.923 21.9283 84.6788 22.5076C84.4475 23.074 84.1197 23.5761 83.6955 24.0137C83.2714 24.4385 82.7701 24.7668 82.1917 24.9985Z" fill="#1E1A1A"/>
<path d="M93.6017 27.0453C94.4886 27.38 95.4461 27.5473 96.4744 27.5473C97.5927 27.5473 98.6081 27.3542 99.5207 26.9681C100.433 26.5819 101.205 26.0219 101.834 25.2881L100.215 23.7434C99.7264 24.2841 99.1801 24.6896 98.576 24.9599C97.9719 25.2173 97.3163 25.3461 96.6094 25.3461C95.9024 25.3461 95.2533 25.2302 94.6621 24.9985C94.0837 24.7668 93.576 24.4385 93.1389 24.0137C92.7148 23.5889 92.3806 23.0869 92.1364 22.5076C91.905 21.9283 91.7893 21.2911 91.7893 20.596C91.7893 19.9009 91.905 19.2637 92.1364 18.6844C92.3806 18.1051 92.7148 17.6031 93.1389 17.1783C93.576 16.7534 94.0837 16.4252 94.6621 16.1935C95.2533 15.9618 95.9024 15.8459 96.6094 15.8459C97.3163 15.8459 97.9719 15.9811 98.576 16.2514C99.1801 16.5089 99.7264 16.9015 100.215 17.4293L101.834 15.9038C101.205 15.1572 100.433 14.5972 99.5207 14.2239C98.6081 13.8377 97.5991 13.6447 96.4937 13.6447C95.4526 13.6447 94.495 13.8184 93.6209 14.166C92.7469 14.5007 91.9821 14.9834 91.3266 15.6142C90.6711 16.2321 90.1634 16.9658 89.8035 17.8155C89.4436 18.6651 89.2636 19.5919 89.2636 20.596C89.2636 21.6001 89.4436 22.5269 89.8035 23.3765C90.1634 24.2261 90.6646 24.9663 91.3073 25.5971C91.9628 26.215 92.7276 26.6977 93.6017 27.0453Z" fill="#1E1A1A"/>
<path d="M106.742 23.8916V27.3542H104.236V13.8377H106.742V20.7736L113.413 13.8377H116.228L110.552 19.8768L116.575 27.3542H113.645L108.892 21.6886L106.742 23.8916Z" fill="#1E1A1A"/>
<path d="M121.166 27.0453C122.053 27.38 123.011 27.5473 124.039 27.5473C125.157 27.5473 126.173 27.3542 127.085 26.9681C127.998 26.5819 128.769 26.0219 129.399 25.2881L127.78 23.7434C127.291 24.2841 126.745 24.6896 126.141 24.9599C125.537 25.2173 124.881 25.3461 124.174 25.3461C123.467 25.3461 122.818 25.2302 122.227 24.9985C121.648 24.7668 121.141 24.4385 120.704 24.0137C120.28 23.5889 119.945 23.0869 119.701 22.5076C119.47 21.9283 119.354 21.2911 119.354 20.596C119.354 19.9009 119.47 19.2637 119.701 18.6844C119.945 18.1051 120.28 17.6031 120.704 17.1783C121.141 16.7534 121.648 16.4252 122.227 16.1935C122.818 15.9618 123.467 15.8459 124.174 15.8459C124.881 15.8459 125.537 15.9811 126.141 16.2514C126.745 16.5089 127.291 16.9015 127.78 17.4293L129.399 15.9038C128.769 15.1572 127.998 14.5972 127.085 14.2239C126.173 13.8377 125.164 13.6447 124.058 13.6447C123.017 13.6447 122.06 13.8184 121.186 14.166C120.312 14.5007 119.547 14.9834 118.891 15.6142C118.236 16.2321 117.728 16.9658 117.368 17.8155C117.008 18.6651 116.828 19.5919 116.828 20.596C116.828 21.6001 117.008 22.5269 117.368 23.3765C117.728 24.2261 118.229 24.9663 118.872 25.5971C119.528 26.215 120.292 26.6977 121.166 27.0453Z" fill="#1E1A1A"/>
<path d="M143.793 13.8377H141.287V19.4181H134.307V13.8377H131.801V27.3542H134.307V21.5615H141.287V27.3542H143.793V13.8377Z" fill="#1E1A1A"/>
<path fill-rule="evenodd" clip-rule="evenodd" d="M154.042 13.8377H151.574L145.501 27.3542H148.084L149.421 24.2261H156.171L157.512 27.3542H160.134L154.042 13.8377ZM155.326 22.2566L152.79 16.3412L150.262 22.2566H155.326Z" fill="#1E1A1A"/>
<path d="M164.357 13.8377H161.851V27.3542H164.357V13.8377Z" fill="#1E1A1A"/>
<path d="M170.071 13.8377H168.008V27.3542H170.495V18.203L177.937 27.3542H180V13.8377H177.513V22.9889L170.071 13.8377Z" fill="#1E1A1A"/>
<path d="M51.2516 33.7593V41.3484H52.9213V33.7593H55.901V32.3444H48.2719V33.7593H51.2516Z" fill="#1E1A1A"/>
<path fill-rule="evenodd" clip-rule="evenodd" d="M59.4767 32.3444L55.431 41.3484H57.152L58.0423 39.2646H62.5389L63.4325 41.3484H65.1792L61.1206 32.3444H59.4767ZM61.9763 37.9526L60.2864 34.0121L58.6029 37.9526H61.9763Z" fill="#1E1A1A"/>
<path d="M66.3226 32.3444V41.3484H72.6929V39.9335H67.9922V32.3444H66.3226Z" fill="#1E1A1A"/>
<path d="M75.6807 37.4638V39.9463H80.7539V41.3484H74.0111V32.3444H80.5741V33.7465H75.6807V36.0875H80.0218V37.4638H75.6807Z" fill="#1E1A1A"/>
<path d="M82.6152 32.3444V41.3484H84.272V35.2523L89.2296 41.3484H90.6039V32.3444H88.9471V38.4404L83.9895 32.3444H82.6152Z" fill="#1E1A1A"/>
<path d="M94.8367 33.7593V41.3484H96.5063V33.7593H99.486V32.3444H91.857V33.7593H94.8367Z" fill="#1E1A1A"/>
<path d="M104.289 32.3444V41.3484H105.958V32.3444H104.289Z" fill="#1E1A1A"/>
<path d="M108.39 32.3444V41.3484H110.047V35.2523L115.004 41.3484H116.379V32.3444H114.722V38.4404L109.764 32.3444H108.39Z" fill="#1E1A1A"/>
<path fill-rule="evenodd" clip-rule="evenodd" d="M118.788 32.3444V41.3484H122.718C123.694 41.3484 124.55 41.1597 125.286 40.7824C126.023 40.4051 126.597 39.882 127.008 39.2131C127.419 38.5357 127.624 37.7468 127.624 36.8464C127.624 35.9374 127.419 35.1485 127.008 34.4796C126.597 33.8108 126.023 33.2877 125.286 32.9104C124.55 32.5331 123.694 32.3444 122.718 32.3444H118.788ZM122.641 39.9335H120.457V33.7593H122.641C123.317 33.7593 123.899 33.8879 124.387 34.1452C124.884 34.4025 125.265 34.7626 125.531 35.2257C125.805 35.6802 125.942 36.2204 125.942 36.8464C125.942 37.4638 125.805 38.004 125.531 38.4671C125.265 38.9302 124.884 39.2903 124.387 39.5476C123.899 39.8048 123.317 39.9335 122.641 39.9335Z" fill="#1E1A1A"/>
<path fill-rule="evenodd" clip-rule="evenodd" d="M131.672 41.1297C132.263 41.3612 132.909 41.477 133.611 41.477C134.305 41.477 134.943 41.3612 135.525 41.1297C136.116 40.8982 136.629 40.5766 137.066 40.165C137.503 39.7534 137.841 39.2646 138.081 38.6986C138.321 38.1327 138.44 37.5153 138.44 36.8464C138.44 36.1775 138.321 35.5644 138.081 35.007C137.841 34.441 137.503 33.9523 137.066 33.5407C136.629 33.1205 136.116 32.7946 135.525 32.5631C134.943 32.3315 134.301 32.2158 133.598 32.2158C132.905 32.2158 132.263 32.3315 131.672 32.5631C131.081 32.7946 130.567 33.1205 130.131 33.5407C129.694 33.9523 129.356 34.441 129.116 35.007C128.876 35.5644 128.756 36.1775 128.756 36.8464C128.756 37.5153 128.876 38.1327 129.116 38.6986C129.356 39.256 129.694 39.7448 130.131 40.165C130.567 40.5766 131.081 40.8982 131.672 41.1297ZM134.857 39.7791C134.472 39.9335 134.052 40.0106 133.598 40.0106C133.145 40.0106 132.725 39.9335 132.34 39.7791C131.954 39.6248 131.621 39.4061 131.338 39.1231C131.055 38.8316 130.833 38.4928 130.67 38.1069C130.516 37.7211 130.439 37.3009 130.439 36.8464C130.439 36.3833 130.516 35.9631 130.67 35.5858C130.833 35.2 131.055 34.8655 131.338 34.5825C131.629 34.291 131.963 34.068 132.34 33.9137C132.725 33.7593 133.145 33.6821 133.598 33.6821C134.052 33.6821 134.472 33.7593 134.857 33.9137C135.242 34.068 135.576 34.291 135.859 34.5825C136.141 34.8655 136.36 35.2 136.514 35.5858C136.677 35.9631 136.758 36.3833 136.758 36.8464C136.758 37.3095 136.677 37.7339 136.514 38.1198C136.36 38.4971 136.141 38.8316 135.859 39.1231C135.576 39.4061 135.242 39.6248 134.857 39.7791Z" fill="#1E1A1A"/>
<path d="M141.584 32.3444H140.21V41.3484H141.867V35.2523L146.825 41.3484H148.199V32.3444H146.542V38.4404L141.584 32.3444Z" fill="#1E1A1A"/>
<path d="M152.278 37.4638V39.9463H157.351V41.3484H150.608V32.3444H157.171V33.7465H152.278V36.0875H156.619V37.4638H152.278Z" fill="#1E1A1A"/>
<path d="M159.983 41.1812C160.625 41.3784 161.297 41.477 161.999 41.477C162.821 41.477 163.502 41.357 164.041 41.1168C164.581 40.8682 164.979 40.5423 165.236 40.1393C165.501 39.7277 165.634 39.2817 165.634 38.8015C165.634 38.3299 165.535 37.9397 165.338 37.631C165.15 37.3223 164.897 37.0779 164.581 36.8978C164.272 36.7178 163.926 36.572 163.54 36.4605C163.164 36.349 162.783 36.2504 162.397 36.1647C162.012 36.0703 161.661 35.976 161.344 35.8817C161.036 35.7874 160.783 35.6587 160.586 35.4958C160.398 35.3243 160.304 35.1013 160.304 34.8269C160.304 34.5954 160.368 34.3896 160.496 34.2095C160.633 34.0294 160.843 33.8837 161.126 33.7722C161.417 33.6607 161.794 33.605 162.256 33.605C162.65 33.605 163.061 33.665 163.489 33.785C163.917 33.8965 164.332 34.0723 164.735 34.3124L165.261 33.0133C164.867 32.756 164.405 32.5588 163.874 32.4216C163.343 32.2844 162.808 32.2158 162.269 32.2158C161.447 32.2158 160.766 32.3401 160.227 32.5888C159.696 32.8289 159.298 33.1548 159.032 33.5664C158.775 33.9694 158.647 34.4153 158.647 34.9041C158.647 35.3843 158.745 35.7788 158.942 36.0875C159.139 36.3962 159.392 36.6449 159.7 36.8335C160.017 37.0136 160.364 37.1637 160.74 37.2837C161.126 37.3952 161.507 37.4938 161.883 37.5796C162.269 37.6653 162.616 37.7597 162.924 37.8626C163.241 37.9569 163.497 38.0898 163.694 38.2613C163.891 38.4242 163.99 38.6429 163.99 38.9173C163.99 39.1403 163.921 39.3418 163.784 39.5219C163.647 39.6934 163.433 39.8306 163.142 39.9335C162.851 40.0364 162.47 40.0878 161.999 40.0878C161.443 40.0878 160.899 39.9935 160.368 39.8048C159.837 39.6162 159.392 39.3804 159.032 39.0974L158.454 40.3965C158.831 40.7138 159.34 40.9754 159.983 41.1812Z" fill="#1E1A1A"/>
<path d="M168.959 32.3444H167.289V41.3484H168.959V32.3444Z" fill="#1E1A1A"/>
<path fill-rule="evenodd" clip-rule="evenodd" d="M175.809 32.3444H174.165L170.119 41.3484H171.84L172.731 39.2646H177.227L178.121 41.3484H179.867L175.809 32.3444ZM176.665 37.9526L174.975 34.0121L173.291 37.9526H176.665Z" fill="#1E1A1A"/>
<path fill-rule="evenodd" clip-rule="evenodd" d="M23.2426 0.79785C23.244 0.77948 23.2447 0.760923 23.2447 0.742204C23.2447 0.332296 22.9129 0 22.5036 0C22.1197 0 21.8039 0.292406 21.7663 0.666989L16.5835 1.55255C16.4708 1.43545 16.3126 1.3626 16.1374 1.3626C15.7952 1.3626 15.5179 1.64036 15.5179 1.983C15.5179 2.00513 15.5191 2.02698 15.5213 2.04851L9.76688 5.5865C9.6902 5.55245 9.60533 5.53354 9.51605 5.53354C9.17393 5.53354 8.89658 5.8113 8.89658 6.15393C8.89658 6.25503 8.92073 6.35048 8.96356 6.43481L5.07374 12.9895C5.01137 12.9679 4.94439 12.9561 4.87467 12.9561C4.53881 12.9561 4.26654 13.2288 4.26654 13.5652C4.26654 13.8739 4.49598 14.1291 4.79343 14.1688L4.92246 17.0364C4.63933 17.0884 4.42477 17.3369 4.42477 17.6355C4.42477 17.8108 4.49873 17.9688 4.61711 18.0799L1.03829 21.864C0.994366 21.8511 0.947884 21.8441 0.899784 21.8441C0.629045 21.8441 0.409568 22.0639 0.409568 22.3351C0.409568 22.4799 0.472162 22.61 0.57173 22.6999L0.208418 23.4375C0.0839966 23.5078 0 23.6415 0 23.7948C0 24.0214 0.18337 24.205 0.409569 24.205C0.420192 24.205 0.430721 24.2046 0.44114 24.2038L2.45405 25.499C2.45803 25.5258 2.46459 25.5517 2.47346 25.5765L1.62784 26.8534C1.60702 26.8501 1.58569 26.8484 1.56395 26.8484C1.33775 26.8484 1.15438 27.0321 1.15438 27.2586C1.15438 27.4565 1.29431 27.6217 1.48048 27.6603L1.66953 28.1482C1.60391 28.2209 1.56395 28.3173 1.56395 28.4231C1.56395 28.5449 1.61696 28.6543 1.70114 28.7294L1.56121 29.241C1.33627 29.2425 1.15438 29.4255 1.15438 29.6512C1.15438 29.8777 1.33775 30.0613 1.56395 30.0613C1.56864 30.0613 1.57331 30.0613 1.57797 30.0611L1.92774 30.8964C1.87306 30.9661 1.84045 31.054 1.84045 31.1496C1.84045 31.3178 1.94161 31.4624 2.08635 31.5257L1.81225 33.2161C1.50861 33.2501 1.27256 33.5081 1.27256 33.8213C1.27256 34.1576 1.54483 34.4303 1.88069 34.4303C1.91272 34.4303 1.94418 34.4278 1.97487 34.4231L2.68891 35.9486C2.57482 36.0593 2.50391 36.2144 2.50391 36.3861C2.50391 36.7224 2.77618 36.9951 3.11204 36.9951C3.33539 36.9951 3.53063 36.8745 3.63636 36.6948L10.1961 36.9771L11.0033 36.9968C11.0084 37.3288 11.2787 37.5963 11.6114 37.5963C11.7378 37.5963 11.8553 37.5576 11.9526 37.4915L13.3926 39.0283C13.3423 39.117 13.3135 39.2196 13.3135 39.3289C13.3135 39.6653 13.5858 39.9379 13.9216 39.9379C13.97 39.9379 14.0171 39.9323 14.0623 39.9216L17.6229 46.9391C17.543 47.0422 17.4955 47.1716 17.4955 47.3122C17.4955 47.6299 17.7382 47.8907 18.048 47.9188L18.6066 51.6108C18.3812 51.7381 18.229 51.9802 18.229 52.2578C18.229 52.6677 18.5608 53 18.9701 53C19.3794 53 19.7111 52.6677 19.7111 52.2578C19.7111 51.8479 19.3794 51.5156 18.9701 51.5156C18.9653 51.5156 18.9605 51.5156 18.9557 51.5157L18.4002 47.844C18.5861 47.7398 18.7117 47.5407 18.7117 47.3122C18.7117 47.2992 18.7113 47.2863 18.7105 47.2735L22.6574 47.956C22.6565 47.9699 22.656 47.9839 22.656 47.9979C22.656 48.3343 22.9283 48.607 23.2642 48.607C23.6 48.607 23.8723 48.3343 23.8723 47.9979C23.8723 47.6826 23.633 47.4232 23.3264 47.392L21.7432 40.2279L26.0424 44.8197C26.0159 44.888 26.0014 44.9622 26.0014 45.0398C26.0014 45.3762 26.2737 45.6489 26.6096 45.6489C26.9454 45.6489 27.2177 45.3762 27.2177 45.0398C27.2177 44.822 27.1036 44.6309 26.9319 44.5233L27.838 38.9715C28.1356 38.9319 28.3653 38.6767 28.3653 38.3678C28.3653 38.2483 28.331 38.1369 28.2717 38.0429L30.8101 34.6311C30.883 34.662 30.9619 34.6814 31.0445 34.6874L31.6052 38.7775C31.3194 38.8805 31.115 39.1544 31.115 39.4761C31.115 39.886 31.4468 40.2183 31.8561 40.2183C32.2654 40.2183 32.5972 39.886 32.5972 39.4761C32.5972 39.1025 32.3216 38.7934 31.963 38.7415L31.3988 34.6257C31.6583 34.5103 31.8393 34.2498 31.8393 33.9471C31.8393 33.7355 31.7509 33.5446 31.6091 33.4094L32.8394 31.5394C32.8897 31.5502 32.9418 31.5558 32.9953 31.5558C33.4046 31.5558 33.7364 31.2236 33.7364 30.8136C33.7364 30.6549 33.6866 30.5077 33.6018 30.387L38.4164 22.6234C38.4917 22.6493 38.5724 22.6633 38.6565 22.6633C39.0658 22.6633 39.3976 22.331 39.3976 21.9211C39.3976 21.5722 39.1572 21.2795 38.8333 21.2001L38.7439 12.9377C39.066 12.8529 39.3036 12.5592 39.3036 12.2099C39.3036 11.7942 38.9672 11.4573 38.5522 11.4573C38.4894 11.4573 38.4284 11.465 38.3701 11.4795L33.2015 4.70444C33.2924 4.58123 33.3461 4.42886 33.3461 4.26392C33.3461 3.85401 33.0143 3.52172 32.605 3.52172C32.3293 3.52172 32.0888 3.67247 31.9611 3.89616L23.2426 0.79785ZM22.8601 1.39303C22.9699 1.3326 23.0627 1.24513 23.1296 1.13958L31.5241 4.12274L30.2595 4.07293C30.1669 3.88953 29.977 3.76378 29.7577 3.76378C29.598 3.76378 29.4538 3.83055 29.3515 3.93775L23.9736 2.50907C23.8811 2.32238 23.6889 2.19405 23.4667 2.19405C23.4484 2.19405 23.4302 2.19492 23.4123 2.19664L22.8601 1.39303ZM21.9664 1.25351C22.0978 1.39191 22.2819 1.47959 22.4865 1.48422L23.0797 2.3475C23.0586 2.36737 23.039 2.38886 23.0211 2.41176L20.6551 2.37691L21.9664 1.25351ZM22.9014 2.76994L20.6068 2.73614C20.5297 2.95705 20.3198 3.11552 20.0729 3.11552C19.9636 3.11552 19.8615 3.08446 19.775 3.03066L17.8698 4.49014C17.9993 4.62342 18.0791 4.80544 18.0791 5.00612C18.0791 5.03529 18.0774 5.06406 18.0742 5.09234L19.3815 5.79166C19.4972 5.69043 19.6486 5.62909 19.8142 5.62909C19.9431 5.62909 20.0633 5.66619 20.1647 5.73029L22.9829 3.0535C22.9327 2.97054 22.9031 2.87363 22.9014 2.76994ZM23.2591 3.28718L20.4051 5.99799C20.4342 6.05737 20.4547 6.12178 20.4648 6.18956L24.0564 6.8878C24.1892 6.67531 24.425 6.53399 24.6938 6.53399C24.8876 6.53399 25.0644 6.60752 25.1977 6.72826L27.7733 5.28011C27.7803 5.23067 27.7953 5.18378 27.8169 5.14078L24.3485 3.32265L23.9072 3.1154C23.8035 3.24418 23.6447 3.32657 23.4667 3.32657C23.3934 3.32657 23.3234 3.3126 23.2591 3.28718ZM28.3774 4.91587C28.3294 4.89866 28.2777 4.88929 28.2239 4.88929C28.1918 4.88929 28.1606 4.8926 28.1304 4.89891L24.5983 3.0474L29.1987 4.26951C29.1968 4.28826 29.1958 4.30729 29.1958 4.32654C29.1958 4.34878 29.1971 4.37072 29.1996 4.39228L28.3774 4.91587ZM28.656 5.20173C28.6527 5.19164 28.649 5.18171 28.645 5.17194L29.3555 4.71951C29.4576 4.82425 29.6001 4.88929 29.7577 4.88929C29.8896 4.88929 30.0108 4.84382 30.1066 4.76769L31.6872 6.61125C31.6534 6.6449 31.6235 6.68244 31.5982 6.72316L28.656 5.20173ZM27.8737 5.63639C27.9572 5.73695 28.0831 5.80097 28.2239 5.80097C28.3878 5.80097 28.5316 5.71412 28.6117 5.58385L31.506 7.08056C31.5172 7.3058 31.6489 7.49929 31.8378 7.59773L31.0872 10.7151C31.0855 10.7151 31.0838 10.7151 31.0821 10.7151C30.9789 10.7151 30.8806 10.7362 30.7913 10.7744L25.4315 7.43032C25.4405 7.38379 25.4452 7.33574 25.4452 7.28659C25.4452 7.19555 25.4291 7.10828 25.3995 7.02751L27.8737 5.63639ZM24.953 7.9932C25.0818 7.94578 25.1941 7.86403 25.2788 7.75902L30.4902 11.0105C30.4475 11.0673 30.4127 11.1304 30.3875 11.1981L25.6117 12.5845C25.5242 12.4305 25.3841 12.3105 25.2158 12.2489L24.953 7.9932ZM24.2927 7.92313C24.3825 7.98002 24.4852 8.01836 24.5954 8.03279L24.8534 12.2108C24.5223 12.257 24.2603 12.5193 24.2139 12.8509L19.4891 13.4842C19.4568 13.3805 19.4026 13.2863 19.332 13.2072L24.2927 7.92313ZM23.9442 7.23262C23.9429 7.25044 23.9423 7.26844 23.9423 7.28659C23.9423 7.42391 23.979 7.55264 24.0432 7.66347L19.0312 13.0022C19.0221 12.9989 19.0129 12.9957 19.0036 12.9927L19.9475 6.93322C20.1602 6.8894 20.3355 6.74269 20.4191 6.54731L23.9442 7.23262ZM19.4994 6.86654C19.5277 6.88201 19.5573 6.89546 19.5879 6.9067L18.6439 12.967C18.5027 12.9912 18.375 13.0548 18.2725 13.1462L14.3792 9.65427C14.424 9.57313 14.4495 9.47979 14.4495 9.38048C14.4495 9.36647 14.449 9.35258 14.448 9.33883L19.4994 6.86654ZM19.1852 6.09464C19.1665 6.15576 19.1564 6.22066 19.1564 6.28792C19.1564 6.39938 19.184 6.50439 19.2328 6.59642L14.4699 8.92752L17.0033 5.66455C17.1043 5.71657 17.219 5.74593 17.3404 5.74593C17.5904 5.74593 17.8114 5.62159 17.945 5.43129L19.1852 6.09464ZM16.6325 5.21809C16.6549 5.29338 16.689 5.36363 16.7327 5.42675L14.0766 8.84786C14.0169 8.82622 13.9525 8.81436 13.8854 8.81422L13.3578 6.31821C13.6326 6.21043 13.8272 5.94252 13.8272 5.62909C13.8272 5.56566 13.8192 5.50409 13.8042 5.44534L16.6325 5.21809ZM17.5362 4.29258C17.4738 4.27546 17.4082 4.26632 17.3404 4.26632C16.983 4.26632 16.6849 4.52056 16.6165 4.85832L14.2594 5.0477L19.0173 3.15798L17.5362 4.29258ZM13.4661 4.99312L13.5234 4.95287L19.4257 2.60862L16.6755 2.29052C16.5688 2.47743 16.3678 2.6034 16.1374 2.6034C15.9712 2.6034 15.8203 2.53787 15.7091 2.43122L15.6526 2.47516L13.4422 4.97944C13.4502 4.98385 13.4582 4.98842 13.4661 4.99312ZM13.0408 4.89081L14.7679 2.93404L10.2396 5.7182L12.3751 5.43656C12.4557 5.13614 12.7205 4.91127 13.0408 4.89081ZM12.4677 6.03021L9.04439 9.3663C9.07187 9.42101 9.09059 9.48088 9.09871 9.54408L13.3227 9.31281C13.3413 9.15658 13.4234 9.01988 13.5424 8.92932L13 6.36365C12.7768 6.33697 12.5841 6.21058 12.4677 6.03021ZM13.3976 9.66915L9.02004 9.90883C8.99932 9.94223 8.97517 9.97326 8.94808 10.0014L11.5655 13.1723C11.6406 13.1345 11.7253 13.1131 11.8151 13.1131C11.8466 13.1131 11.8776 13.1158 11.9077 13.1208L13.4596 9.75449C13.4364 9.72811 13.4156 9.69954 13.3976 9.66915ZM13.7719 9.93559L12.2241 13.2931C12.3149 13.3921 12.3703 13.5242 12.3703 13.6692C12.3703 13.9167 12.2089 14.1264 11.9858 14.1985L12.0806 15.6279C12.3359 15.6763 12.5455 15.8541 12.6389 16.0906L18.0232 13.7767C18.0212 13.7543 18.0202 13.7316 18.0202 13.7087C18.0202 13.6161 18.0369 13.5274 18.0675 13.4454L14.1128 9.89851C14.0429 9.92951 13.9655 9.94674 13.8841 9.94674C13.8457 9.94674 13.8082 9.9429 13.7719 9.93559ZM18.1408 14.1178L12.6854 16.4622C12.6683 16.5987 12.6146 16.7239 12.5345 16.8275L17.3923 21.2692C17.4456 21.216 17.5087 21.1727 17.5787 21.1422L18.441 14.3847C18.3184 14.3245 18.2146 14.2318 18.1408 14.1178ZM18.7936 14.461L17.9458 21.1045C18.0471 21.1256 18.1391 21.1719 18.2151 21.2367L23.6335 17.768C23.6234 17.7192 23.6181 17.6685 23.6181 17.6167C23.6181 17.4682 23.6616 17.3298 23.7367 17.2138L19.216 14.3157C19.097 14.4032 18.9514 14.4565 18.7936 14.461ZM19.448 14.0371L24.0101 16.9618C24.1132 16.9066 24.2308 16.8751 24.3556 16.8745L24.8245 13.6969C24.5575 13.6489 24.3394 13.4596 24.2502 13.2091L19.5109 13.8444C19.4986 13.9123 19.4772 13.9769 19.448 14.0371ZM25.1915 13.6717L24.7062 16.9607C24.8476 17.0359 24.9618 17.1556 25.0301 17.3011L28.5448 16.7266C28.562 16.5859 28.6185 16.4573 28.7029 16.3523L25.4207 13.5493C25.3527 13.6025 25.2753 13.6443 25.1915 13.6717ZM25.643 13.2662L28.9979 16.1312C29.0645 16.1037 29.1361 16.0856 29.2109 16.0786L30.6491 12.0597C30.4948 11.9482 30.385 11.7788 30.3517 11.5832L25.7092 12.9309C25.7094 12.9393 25.7096 12.9477 25.7096 12.9561C25.7096 13.0667 25.6858 13.1717 25.643 13.2662ZM30.9831 12.1929L29.5724 16.1353C29.6898 16.1857 29.7915 16.2657 29.8684 16.3658L36.0754 14.9846C36.0733 14.9641 36.0722 14.9433 36.0722 14.9223C36.0722 14.8826 36.076 14.8439 36.0832 14.8063L31.7259 11.8252C31.5982 12.0488 31.3577 12.1995 31.0821 12.1995C31.0486 12.1995 31.0155 12.1972 30.9831 12.1929ZM31.8232 11.4559L36.2544 14.4876C36.2862 14.4563 36.3215 14.4285 36.3595 14.4048L35.5189 11.4305C35.5148 11.4305 35.5106 11.4306 35.5065 11.4306C35.0972 11.4306 34.7654 11.0983 34.7654 10.6884C34.7654 10.4774 34.8533 10.2871 34.9943 10.1519L32.532 7.51092C32.4394 7.59355 32.3216 7.6486 32.1917 7.66322L31.4353 10.8046C31.666 10.9301 31.8227 11.1746 31.8232 11.4559ZM32.7232 7.18855L35.317 9.97065C35.3775 9.95467 35.441 9.94616 35.5065 9.94616C35.9072 9.94616 36.2336 10.2646 36.2471 10.6625L37.8695 11.8948C37.9124 11.8017 37.9737 11.7189 38.0488 11.6511L32.9243 4.9339C32.8276 4.9802 32.7193 5.00612 32.605 5.00612C32.5873 5.00612 32.5698 5.00551 32.5525 5.00429L32.3912 6.49336C32.597 6.59346 32.7389 6.80482 32.7389 7.04937C32.7389 7.09723 32.7334 7.14382 32.7232 7.18855ZM32.0357 6.43764L32.2036 4.88797C32.063 4.79708 31.9551 4.65982 31.9014 4.49778L30.3092 4.43507C30.3083 4.4395 30.3074 4.44391 30.3065 4.44829L32.0149 6.44093C32.0218 6.43971 32.0287 6.43862 32.0357 6.43764ZM37.8058 12.2982L36.1564 11.0453C36.0891 11.168 35.9882 11.2695 35.8661 11.3375L36.7073 14.3138C36.7622 14.3162 36.8152 14.3259 36.8654 14.342L37.8327 12.4278C37.8201 12.386 37.811 12.3427 37.8058 12.2982ZM38.0587 12.7775L37.1625 14.5511C37.2415 14.6539 37.2885 14.7826 37.2885 14.9223C37.2885 15.1617 37.1505 15.3689 36.9498 15.4684L37.3557 19.2538C37.6197 19.3203 37.8151 19.5596 37.8151 19.8445C37.8151 19.9922 37.7626 20.1275 37.6754 20.233L38.318 21.2606C38.3671 21.2353 38.4193 21.2154 38.474 21.2015L38.3846 12.9437C38.2618 12.9157 38.1505 12.8576 38.0587 12.7775ZM38.0449 21.5018L37.3747 20.4301C37.336 20.4412 37.2958 20.4486 37.2544 20.4518L36.0228 23.4282L38.0067 22.2782C37.9485 22.1722 37.9154 22.0505 37.9154 21.9211C37.9154 21.7655 37.9632 21.6211 38.0449 21.5018ZM36.7616 20.2593C36.8018 20.3025 36.8481 20.3399 36.8992 20.37L35.6407 23.4116C35.5648 23.3775 35.4807 23.3585 35.3921 23.3585C35.2466 23.3585 35.113 23.4097 35.0083 23.4951L32.159 21.757C32.1662 21.7422 32.1728 21.7271 32.179 21.7117L36.7616 20.2593ZM36.9963 19.273C36.7643 19.3588 36.5988 19.5823 36.5988 19.8445C36.5988 19.8741 36.6009 19.9031 36.605 19.9314L32.2239 21.32C32.2147 21.2604 32.1984 21.2032 32.1759 21.1491L36.4743 15.4955C36.5128 15.5094 36.5529 15.5194 36.5945 15.5253L36.9963 19.273ZM31.9505 20.8515L36.1421 15.3384L30.0126 16.7024C30.0184 16.74 30.0214 16.7784 30.0214 16.8176C30.0214 17.0272 29.9347 17.2165 29.7952 17.3514L31.3036 20.7161C31.3636 20.7004 31.4266 20.692 31.4915 20.692C31.6649 20.692 31.8243 20.7516 31.9505 20.8515ZM30.9877 20.8899L29.4822 17.532C29.418 17.5501 29.3503 17.5598 29.2803 17.5598C29.1362 17.5598 29.0017 17.5186 28.8879 17.4473L25.3329 21.1012C25.3642 21.1427 25.3903 21.1884 25.4103 21.2373L30.7567 21.3372C30.7796 21.1613 30.864 21.0047 30.9877 20.8899ZM30.7985 21.6979L25.4414 21.5978C25.4205 21.6942 25.3767 21.7822 25.3161 21.8556L28.1634 26.089C28.2492 26.0542 28.343 26.0351 28.4412 26.0351C28.5026 26.0351 28.5622 26.0426 28.6193 26.0567L30.977 21.9684C30.8991 21.8932 30.8377 21.801 30.7985 21.6979ZM31.2883 22.1482L28.9369 26.2256C29.0025 26.2847 29.0575 26.3554 29.0986 26.4345L34.786 24.0171C34.7847 24.0008 34.784 23.9843 34.784 23.9676C34.784 23.9076 34.7927 23.8496 34.8088 23.7948L31.9254 22.036C31.8034 22.1243 31.6535 22.1764 31.4915 22.1764C31.421 22.1764 31.3529 22.1666 31.2883 22.1482ZM35.2058 24.5475L30.1639 30.2465C30.1932 30.3179 30.2094 30.3961 30.2094 30.4781C30.2094 30.4783 30.2094 30.4786 30.2094 30.4788L32.2834 30.6068C32.3728 30.2975 32.6577 30.0714 32.9953 30.0714C33.081 30.0714 33.1633 30.086 33.2399 30.1128L35.2128 24.5497C35.2104 24.549 35.2081 24.5483 35.2058 24.5475ZM35.5972 24.5411L33.9851 29.0867L37.9175 22.7457L35.9912 23.8623C35.9972 23.8965 36.0003 23.9317 36.0003 23.9676C36.0003 24.2319 35.8322 24.4569 35.5972 24.5411ZM32.3921 31.2449L28.4792 34.3082L30.3596 34.0083C30.358 33.9881 30.3571 33.9677 30.3571 33.9471C30.3571 33.5372 30.6889 33.2049 31.0982 33.2049C31.1666 33.2049 31.2328 33.2142 31.2957 33.2315L32.5148 31.3787C32.4686 31.3393 32.4274 31.2944 32.3921 31.2449ZM30.4782 34.3539L28.4676 34.6745C28.3969 34.892 28.2073 35.0558 27.9756 35.0888L27.9308 37.7839C27.9538 37.7907 27.9762 37.7989 27.998 37.8083L30.5228 34.4149C30.507 34.3953 30.4921 34.375 30.4782 34.3539ZM27.5714 37.7877L27.6171 35.0306C27.4663 34.9549 27.3512 34.8182 27.3042 34.6528L24.0257 34.5365L27.5541 37.7935C27.5598 37.7915 27.5656 37.7895 27.5714 37.7877ZM27.2623 38.0137L23.8506 34.8643C23.7392 35.0033 23.5681 35.0922 23.3763 35.0922C23.3676 35.0922 23.3589 35.092 23.3503 35.0916L21.7369 39.087C21.8239 39.1313 21.8988 39.1959 21.9555 39.2746L27.15 38.3339C27.1565 38.2148 27.1972 38.1049 27.2623 38.0137ZM27.2372 38.6838L22.0698 39.6196C22.0698 39.6232 22.0699 39.6267 22.0699 39.6303C22.0699 39.7486 22.0362 39.859 21.9779 39.9524L26.2688 44.5353C26.3591 44.474 26.4667 44.4364 26.5828 44.4314L27.4836 38.9118C27.3817 38.8603 27.2963 38.781 27.2372 38.6838ZM21.3294 40.2249C21.3449 40.2283 21.3605 40.2311 21.3763 40.2333L22.9739 47.4626C22.9038 47.5008 22.842 47.5525 22.792 47.6141L18.5459 46.8798L21.3294 40.2249ZM20.8723 39.7806C20.8976 39.8806 20.9476 39.9707 21.0155 40.044L18.3301 46.4643L16.4775 39.571C16.567 39.5508 16.6489 39.5109 16.7187 39.4561L20.8723 39.7806ZM21.3732 39.0276C21.1499 39.0602 20.9659 39.2144 20.8904 39.421L16.9365 39.1121C16.9464 39.0686 16.9516 39.0233 16.9516 38.9768C16.9516 38.9236 16.9447 38.8719 16.9319 38.8227L22.9085 34.8723C22.9389 34.9089 22.9735 34.9419 23.0115 34.9705L21.3732 39.0276ZM22.9064 34.0965C22.82 34.2017 22.7682 34.3363 22.7682 34.4832C22.7682 34.4998 22.7688 34.5162 22.7701 34.5325L16.7422 38.5169C16.6694 38.4536 16.5815 38.4073 16.4846 38.3843L16.5317 36.5528L16.5559 34.7671C16.8423 34.6645 17.0473 34.3903 17.0473 34.0681C17.0473 34.0149 17.0417 33.963 17.0311 33.9129L20.4504 32.6227C20.5616 32.7663 20.7356 32.8588 20.9312 32.8588C21.0312 32.8588 21.1256 32.8346 21.2088 32.7918L22.9064 34.0965ZM23.5505 33.8995C23.4953 33.883 23.4368 33.8741 23.3763 33.8741C23.326 33.8741 23.2771 33.8802 23.2303 33.8918L21.4676 32.537C21.497 32.482 21.5183 32.422 21.5297 32.3585L25.9203 31.8313C25.925 31.8421 25.93 31.8529 25.9353 31.8634L23.5505 33.8995ZM23.8991 34.1718C23.8864 34.1505 23.8724 34.13 23.8573 34.1105L26.1849 32.1232C26.272 32.1715 26.3722 32.199 26.4788 32.199C26.4916 32.199 26.5044 32.1986 26.5171 32.1978L27.4925 34.0242C27.4103 34.0951 27.3473 34.1876 27.3122 34.293L23.8991 34.1718ZM27.8819 33.8768C27.8621 33.8771 27.8425 33.8782 27.8232 33.8803L26.8554 32.0681C26.9923 31.9598 27.0817 31.7937 27.0867 31.6066L29.156 30.9374L27.8819 33.8768ZM28.2727 34.0131C28.2585 34.0016 28.2439 33.9907 28.2287 33.9804L29.4875 31.0765C29.5243 31.0834 29.5624 31.0871 29.6012 31.0871C29.8051 31.0871 29.9856 30.9866 30.0959 30.8324L32.1719 30.9605L28.2727 34.0131ZM29.2305 29.9953C29.0861 30.1066 28.9931 30.2815 28.9931 30.4781C28.9931 30.5224 28.9978 30.5657 29.0068 30.6074L26.9899 31.2597C26.9612 31.2154 26.927 31.175 26.8882 31.1396L28.3457 27.5134C28.377 27.5174 28.4088 27.5195 28.4412 27.5195C28.4444 27.5195 28.4477 27.5195 28.451 27.5194L29.2305 29.9953ZM29.9314 29.9665C29.8364 29.9048 29.723 29.869 29.6012 29.869C29.59 29.869 29.5789 29.8693 29.5678 29.8699L28.7988 27.4275C29.024 27.303 29.1776 27.0647 29.1821 26.79L34.8869 24.3652L29.9314 29.9665ZM27.7598 27.0698C27.8137 27.1955 27.9013 27.3034 28.0112 27.3819L26.5623 30.9866C26.535 30.9828 26.5071 30.9809 26.4788 30.9809C26.4045 30.9809 26.3333 30.9942 26.2675 31.0186L23.0302 26.9504L27.7598 27.0698ZM27.8728 26.301C27.7788 26.4134 27.7174 26.554 27.7032 26.7083L22.9374 26.588C22.906 26.4517 22.829 26.3329 22.7233 26.2486L24.8054 22.0754C24.8192 22.0763 24.8332 22.0768 24.8472 22.0768C24.9057 22.0768 24.9622 22.0685 25.0157 22.0531L27.8728 26.301ZM24.24 21.5023C24.25 21.6814 24.3373 21.8398 24.4689 21.9447L22.3868 26.1177C22.3729 26.1168 22.3589 26.1163 22.3447 26.1163C22.3071 26.1163 22.2703 26.1197 22.2346 26.1263L18.3035 22.072C18.3307 22.0367 18.354 21.9983 18.373 21.9574L24.24 21.5023ZM24.6209 20.9023C24.5049 20.9489 24.4065 21.0303 24.3387 21.1336L18.4199 21.5928C18.4168 21.575 18.4128 21.5575 18.4081 21.5403L23.7916 18.094C23.9276 18.2559 24.1314 18.3589 24.3592 18.3589C24.3602 18.3589 24.3612 18.3589 24.3622 18.3589L24.6209 20.9023ZM25.0375 20.8891C25.0185 20.8828 24.999 20.8775 24.9792 20.8731L24.7142 18.2683C24.9339 18.148 25.0861 17.9196 25.0993 17.6544L28.5884 17.0841C28.6023 17.1203 28.619 17.1551 28.6381 17.1883L25.0375 20.8891ZM17.8151 22.3098C17.8172 22.3098 17.8193 22.3098 17.8213 22.3098C17.8856 22.3098 17.9475 22.2999 18.0056 22.2814L21.9058 26.3038C21.8214 26.3919 21.7632 26.5055 21.7437 26.6318L17.0085 29.2078C16.9943 29.1911 16.9794 29.1751 16.9638 29.1597L17.8151 22.3098ZM17.3503 22.0861C17.3843 22.1276 17.4236 22.1646 17.4672 22.1959L16.6254 28.9689C16.5673 28.9543 16.5066 28.9465 16.444 28.9465C16.3909 28.9465 16.339 28.9521 16.2891 28.9628L12.9363 23.6526C12.9754 23.5616 12.997 23.4613 12.997 23.3559C12.997 23.2909 12.9888 23.2279 12.9733 23.1677L17.3503 22.0861ZM17.2215 21.6003C17.216 21.633 17.2132 21.6666 17.2132 21.7008C17.2132 21.717 17.2138 21.733 17.2151 21.7488L12.794 22.8414C12.7125 22.7542 12.6105 22.6865 12.4957 22.646L12.0914 17.1046C12.1463 17.0933 12.199 17.0761 12.2488 17.0536L17.2215 21.6003ZM11.4164 16.9072C11.434 16.9243 11.4523 16.9405 11.4715 16.9558L9.96302 19.5264L8.7339 21.7283L9.04951 17.906C9.23413 17.8186 9.36186 17.6305 9.36186 17.4124C9.36186 17.3972 9.36124 17.3821 9.36002 17.3673L11.4164 16.9072ZM11.1886 16.3823C11.1899 16.4518 11.2007 16.5189 11.2196 16.5825L9.20809 17.0325C9.10907 16.9303 8.97046 16.8667 8.81703 16.8667C8.75572 16.8667 8.69678 16.8769 8.64179 16.8956L6.8469 14.7253L11.1886 16.3823ZM11.7217 15.6469C11.524 15.7069 11.3608 15.8462 11.269 16.0279L7.00535 14.4006C7.0134 14.3611 7.01762 14.3202 7.01762 14.2783C7.01762 14.0531 6.8956 13.8564 6.71416 13.7511L8.38846 10.1486C8.439 10.1637 8.49257 10.1719 8.54805 10.1719C8.57202 10.1719 8.59564 10.1704 8.61882 10.1674L11.3131 13.4313C11.2789 13.5035 11.2599 13.5841 11.2599 13.6692C11.2599 13.9095 11.4121 14.1142 11.6252 14.1919L11.7217 15.6469ZM8.46456 9.06597C8.19752 9.1063 7.9928 9.33711 7.9928 9.61581C7.9928 9.73383 8.02952 9.84327 8.09213 9.93329L6.35467 13.6717C6.14578 13.6904 5.96729 13.8148 5.873 13.9912L5.47197 13.6802C5.47908 13.6429 5.4828 13.6045 5.4828 13.5652C5.4828 13.43 5.43883 13.3051 5.36445 13.2041L9.22363 6.701C9.26544 6.72346 9.31012 6.74125 9.35697 6.75369L8.46456 9.06597ZM9.75231 6.72761L8.85741 9.04634L12.16 5.82795L10.1328 6.0953C10.1346 6.1146 10.1355 6.13416 10.1355 6.15393C10.1355 6.41278 9.97723 6.6346 9.75231 6.72761ZM5.15043 14.1081C5.20533 14.0801 5.25541 14.044 5.29911 14.0013L5.81359 14.4004C5.85182 14.5885 5.97658 14.745 6.14443 14.8266L6.44621 18.166L5.63496 17.7218C5.63896 17.6936 5.64103 17.6648 5.64103 17.6355C5.64103 17.3888 5.49466 17.1764 5.28418 17.0807L5.15043 14.1081ZM4.96047 18.2402C4.98422 18.243 5.00839 18.2445 5.0329 18.2445C5.21009 18.2445 5.36958 18.1686 5.48073 18.0475L6.20781 18.4456C6.18136 18.4966 6.16272 18.5524 6.15347 18.6112L3.06685 20.8579C2.77204 20.8676 2.53581 21.1092 2.53404 21.4063L1.53742 21.8596L4.96047 18.2402ZM2.65022 21.7488L1.38983 22.322C1.38994 22.3263 1.39 22.3307 1.39 22.3351C1.39 22.6027 1.17622 22.8203 0.91037 22.8259L0.609478 23.4368C0.669411 23.4704 0.720038 23.5187 0.756521 23.5768L3.64042 24.0058C3.6776 23.9408 3.73204 23.8869 3.79749 23.8505L3.00222 21.9556C2.85965 21.934 2.73498 21.8577 2.65022 21.7488ZM3.36312 21.8867L4.18514 23.8453C4.23387 23.8708 4.27685 23.9057 4.31161 23.9478L7.73881 22.761C7.73695 22.7416 7.736 22.7219 7.736 22.7021C7.736 22.4569 7.88062 22.2456 8.08909 22.149L6.68929 19.2424C6.49971 19.2416 6.33298 19.1438 6.23601 18.996L3.46713 21.0115C3.57157 21.1119 3.63658 21.2532 3.63658 21.4097C3.63658 21.6132 3.5267 21.7909 3.36312 21.8867ZM7.03106 19.1236L8.36045 21.884L8.68594 17.9421C8.55959 17.9109 8.45062 17.8355 8.37627 17.7332L7.2295 18.6093C7.23409 18.6378 7.23647 18.667 7.23647 18.6968C7.23647 18.8696 7.15624 19.0236 7.03106 19.1236ZM7.05486 18.2901L8.27487 17.358C8.28357 17.27 8.31316 17.1881 8.35861 17.1174L6.51032 14.8825L6.8068 18.1633C6.90079 18.1836 6.98576 18.2281 7.05486 18.2901ZM8.92548 22.5228C8.9023 22.4473 8.86486 22.3781 8.81631 22.3182L10.2748 19.7055L11.7388 17.2106L12.1329 22.6117C11.9383 22.641 11.7682 22.745 11.6525 22.8936L8.92548 22.5228ZM8.6495 23.2289C8.77899 23.1534 8.87813 23.0315 8.92409 22.8858L11.5035 23.2365C11.4973 23.2754 11.4941 23.3152 11.4941 23.3559C11.4941 23.4786 11.5234 23.5945 11.5755 23.6969L8.41422 26.7363L8.6495 23.2289ZM7.87821 23.0935C7.97766 23.2121 8.12144 23.2922 8.284 23.3082L8.05669 26.697C7.76302 26.7162 7.52621 26.9442 7.49279 27.2342L5.30295 28.0978C5.23387 28.0445 5.14736 28.0129 5.05348 28.0129C5.03366 28.0129 5.01417 28.0143 4.99511 28.017L4.12485 27.1821C4.12807 27.1614 4.12974 27.1402 4.12974 27.1186C4.12974 27.026 4.0991 26.9406 4.04744 26.8719L4.27184 24.5126C4.33288 24.4569 4.37705 24.383 4.39576 24.2994L7.87821 23.0935ZM3.61758 24.3663C3.62988 24.396 3.64556 24.4239 3.66414 24.4496L3.07856 25.0917C3.01513 25.0514 2.93987 25.028 2.85915 25.028C2.74686 25.028 2.64512 25.0732 2.57113 25.1465L0.770867 23.9882C0.778206 23.9745 0.784787 23.9603 0.790556 23.9457L3.61758 24.3663ZM2.73696 25.8298C2.77555 25.8419 2.81659 25.8484 2.85915 25.8484C3.08535 25.8484 3.26872 25.6647 3.26872 25.4382C3.26872 25.4287 3.2684 25.4193 3.26777 25.41L3.28169 25.4027L3.88959 24.7361L3.70196 26.7088C3.55476 26.7152 3.42773 26.7995 3.36087 26.9215L2.02223 26.909L2.73696 25.8298ZM3.34408 27.2813L1.9734 27.2685C1.97057 27.3889 1.9159 27.4965 1.83087 27.5697L2.00299 28.014C2.06755 28.0186 2.12797 28.0381 2.18081 28.0693L3.34705 27.288C3.34604 27.2857 3.34505 27.2835 3.34408 27.2813ZM3.64442 27.5218L2.73308 28.1323H4.59573L3.91519 27.4794C3.85721 27.5109 3.79077 27.5288 3.72017 27.5288C3.69429 27.5288 3.66897 27.5264 3.64442 27.5218ZM2.04715 28.8267C2.21587 28.796 2.34858 28.6618 2.3773 28.4922H4.02519L1.93701 29.2293L2.04715 28.8267ZM4.88603 28.7975L3.49838 30.0184C3.52 30.0709 3.53193 30.1284 3.53193 30.1887C3.53193 30.2904 3.49803 30.3842 3.44094 30.4593L5.63014 32.8158C5.6638 32.8068 5.69915 32.8021 5.73562 32.8021C5.74678 32.8021 5.75783 32.8025 5.76877 32.8034L7.73639 27.7953C7.66428 27.7421 7.60434 27.6733 7.56149 27.5939L5.46305 28.4214C5.46305 28.422 5.46305 28.4225 5.46305 28.4231C5.46305 28.6496 5.27968 28.8333 5.05348 28.8333C4.99383 28.8333 4.93715 28.8205 4.88603 28.7975ZM8.07616 27.9135L6.08098 32.9916C6.12163 33.0553 6.14519 33.131 6.14519 33.2122C6.14519 33.386 6.03729 33.5346 5.88492 33.5943L5.83127 34.6386C5.88561 34.6686 5.93241 34.7105 5.96814 34.761L10.6749 33.5463C10.6749 33.5459 10.6749 33.5455 10.6749 33.5451C10.6749 33.3315 10.7847 33.1436 10.9508 33.0349L8.3231 27.8703C8.25317 27.8983 8.17682 27.9138 8.09687 27.9138C8.08994 27.9138 8.08303 27.9137 8.07616 27.9135ZM8.60726 27.636L11.2929 32.9145L12.0083 24.0702C11.9371 24.0465 11.8706 24.0124 11.8106 23.9697L8.63575 27.0222C8.67998 27.1067 8.705 27.2028 8.705 27.3048C8.705 27.4269 8.66909 27.5407 8.60726 27.636ZM12.3665 24.0988L11.6422 33.0536C11.6584 33.0655 11.674 33.0782 11.689 33.0917L15.8825 30.1732C15.7706 30.0432 15.7029 29.8739 15.7029 29.6887C15.7029 29.4618 15.8046 29.2587 15.9648 29.1226L12.7015 23.9541C12.6054 24.0277 12.4911 24.0786 12.3665 24.0988ZM16.2007 30.39L11.874 33.4012C11.8852 33.4473 11.8911 33.4955 11.8911 33.5451C11.8911 33.7505 11.7897 33.9321 11.6342 34.0424L11.7658 36.3981C11.8203 36.4123 11.8718 36.434 11.9191 36.4619L15.5746 34.187C15.5684 34.1483 15.5651 34.1086 15.5651 34.0681C15.5651 33.6636 15.8882 33.3347 16.29 33.3261L16.3795 30.4282C16.3174 30.4228 16.2575 30.4098 16.2007 30.39ZM16.7409 30.369L16.647 33.4089C16.7332 33.4536 16.8095 33.5149 16.8718 33.5884L20.3241 32.2857C20.3234 32.2738 20.3231 32.2618 20.3231 32.2498C20.3231 32.2399 20.3233 32.2301 20.3238 32.2203L17.0032 30.1757C16.9316 30.2581 16.8422 30.3246 16.7409 30.369ZM17.1667 29.8539L20.451 31.8761C20.5622 31.7329 20.736 31.6407 20.9312 31.6407C20.9553 31.6407 20.979 31.6421 21.0023 31.6449L22.0009 27.2277C21.9192 27.1716 21.852 27.096 21.8058 27.0077L17.1682 29.5305C17.1792 29.5815 17.1851 29.6344 17.1851 29.6887C17.1851 29.7455 17.1787 29.8008 17.1667 29.8539ZM22.3452 27.3344L21.3366 31.7958C21.4 31.8526 21.4514 31.9225 21.4866 32.0012L25.8818 31.4734C25.8985 31.387 25.9334 31.3071 25.9825 31.2379L22.7517 27.1779C22.6441 27.2751 22.5015 27.3343 22.3452 27.3344ZM15.7189 34.5209L12.1642 36.7331C12.1997 36.8105 12.2195 36.8966 12.2195 36.9873C12.2195 37.0647 12.2051 37.1387 12.1788 37.2069L13.6543 38.7817C13.735 38.7421 13.8257 38.7199 13.9216 38.7199C13.9869 38.7199 14.0499 38.7302 14.1088 38.7493L15.8622 34.6624C15.8083 34.6219 15.7601 34.5743 15.7189 34.5209ZM16.1936 34.8018L14.4081 38.9634C14.4494 39.0184 14.4816 39.0808 14.5025 39.1481L15.7395 38.9047C15.7663 38.6772 15.9183 38.4881 16.1245 38.4084L16.1723 36.5468L16.1724 36.5446L16.196 34.8021C16.1952 34.802 16.1944 34.8019 16.1936 34.8018ZM15.8042 39.2587L14.5008 39.5152C14.474 39.5988 14.4297 39.6745 14.3722 39.7379L17.9206 46.7313C17.9538 46.7208 17.9882 46.7131 18.0236 46.7084L16.0952 39.5329C15.9701 39.4769 15.8675 39.3798 15.8042 39.2587ZM11.4068 36.4136L11.2805 34.1542C11.0737 34.1533 10.8912 34.0491 10.782 33.8904L6.18282 35.0772L11.0956 36.5668L11.1586 36.5807C11.2255 36.506 11.3105 36.448 11.4068 36.4136ZM5.41342 35.3438C5.47708 35.3846 5.55275 35.4083 5.63393 35.4083C5.71063 35.4083 5.7824 35.3872 5.84377 35.3504L9.99129 36.608L3.71831 36.3381C3.71754 36.3283 3.71655 36.3186 3.71534 36.3089L5.41342 35.3438ZM5.47233 34.6211C5.32649 34.6839 5.22436 34.829 5.22436 34.9981C5.22436 35.0111 5.22496 35.0238 5.22613 35.0365L4.02294 35.7203L5.5151 33.7887L5.47233 34.6211ZM3.44701 35.8777L5.31051 33.4654L2.4769 33.9419C2.45163 34.0679 2.38752 34.1798 2.29762 34.2647L3.00951 35.7856C3.04284 35.78 3.07709 35.777 3.11204 35.777C3.23581 35.777 3.35095 35.8141 3.44701 35.8777ZM2.44053 33.583L5.34304 33.095C5.34743 33.0802 5.35262 33.0658 5.35856 33.0518L3.11335 30.635C3.10411 30.6356 3.0948 30.6359 3.08542 30.6359C3.01457 30.6359 2.94757 30.6194 2.88806 30.59L2.64735 31.0496C2.65534 31.0816 2.65959 31.1151 2.65959 31.1496C2.65959 31.3019 2.57673 31.4348 2.45369 31.5055L2.16547 33.283C2.28812 33.3482 2.38582 33.4543 2.44053 33.583ZM2.39096 30.7643L2.64721 30.275C2.64533 30.2654 2.64375 30.2556 2.6425 30.2457L1.90024 29.8854C1.89896 29.8872 1.89767 29.889 1.89636 29.8908L2.25167 30.7394C2.3006 30.7396 2.3475 30.7484 2.39096 30.7643ZM3.23805 29.7683C3.19043 29.751 3.13902 29.7415 3.08542 29.7415C2.9503 29.7415 2.82919 29.8016 2.74731 29.8966L2.0654 29.5656L4.40874 28.7384L3.23805 29.7683ZM16.7552 1.93744L19.584 2.26464C19.682 2.09621 19.8642 1.983 20.0729 1.983C20.2044 1.983 20.3255 2.02798 20.4215 2.10342L21.6486 1.05221L16.7498 1.88923C16.7522 1.90511 16.754 1.92119 16.7552 1.93744Z" fill="url(#paint0_linear_68_72)"/>
<defs>
<linearGradient id="paint0_linear_68_72" x1="5.78734" y1="11.6772" x2="39.4547" y2="50.0126" gradientUnits="userSpaceOnUse">
<stop stop-color="#01ADFF"/>
<stop offset="0.837453" stop-color="#D700FF"/>
</linearGradient>
</defs>
</svg>
