<svg width="180" height="52" viewBox="0 0 180 52" fill="none" xmlns="http://www.w3.org/2000/svg">
<path d="M46.064 24.2817V7.54936H52.3546C53.4599 7.54936 54.3864 7.69507 55.1341 7.98649C55.8981 8.27791 56.4752 8.73933 56.8653 9.37074C57.2716 9.98596 57.4748 10.7955 57.4748 11.7992C57.4748 12.5116 57.3935 13.1106 57.231 13.5963C57.0685 14.082 56.8328 14.4949 56.5239 14.8349C56.2313 15.1587 55.8575 15.4339 55.4023 15.6606C55.89 15.8386 56.3289 16.0815 56.719 16.3891C57.1091 16.6805 57.4098 17.0853 57.6211 17.6034C57.8487 18.1214 57.9625 18.7771 57.9625 19.5704C57.9625 20.4609 57.8324 21.2137 57.5724 21.8289C57.3285 22.428 56.9709 22.9056 56.4995 23.2618C56.0281 23.6179 55.4592 23.877 54.7928 24.0389C54.1426 24.2008 53.4193 24.2817 52.6228 24.2817H46.064ZM48.4047 22.3632H52.5009C53.1511 22.3632 53.7037 22.2823 54.1588 22.1204C54.6302 21.9423 54.996 21.6509 55.256 21.2461C55.5161 20.8252 55.6462 20.2342 55.6462 19.4733C55.6462 18.8743 55.5324 18.3967 55.3048 18.0405C55.0935 17.6681 54.8172 17.3929 54.4758 17.2148C54.1507 17.0205 53.8012 16.891 53.4274 16.8262C53.0698 16.7615 52.7284 16.7291 52.4033 16.7291H48.4047V22.3632ZM48.4047 14.8349H52.3789C53.3705 14.8349 54.0776 14.6082 54.5002 14.1549C54.9391 13.6854 55.1585 12.9811 55.1585 12.0421C55.1585 11.1516 54.9147 10.504 54.4271 10.0993C53.9557 9.67835 53.2242 9.46788 52.2327 9.46788H48.4047V14.8349Z" fill="black"/>
<path d="M61.2116 24.2817V7.54936H63.5523V22.2418H70.6962V24.2817H61.2116Z" fill="black"/>
<path d="M78.9563 24.5246C77.1845 24.5246 75.8029 24.2089 74.8113 23.5775C73.836 22.9299 73.1452 21.9746 72.7388 20.7118C72.3487 19.4328 72.1537 17.8624 72.1537 16.0005C72.1537 14.1225 72.3568 12.544 72.7632 11.265C73.1696 9.96977 73.8604 8.98218 74.8357 8.3022C75.8272 7.62222 77.2008 7.28223 78.9563 7.28223C80.6955 7.28223 82.0528 7.62222 83.0281 8.3022C84.0196 8.96599 84.7186 9.94548 85.125 11.2407C85.5313 12.5359 85.7345 14.1225 85.7345 16.0005C85.7345 17.911 85.5313 19.5057 85.125 20.7847C84.7349 22.0475 84.044 22.9865 83.0525 23.6017C82.0772 24.217 80.7118 24.5246 78.9563 24.5246ZM78.9563 22.5089C80.1591 22.5089 81.0694 22.2742 81.6871 21.8047C82.321 21.3351 82.7518 20.6228 82.9793 19.6676C83.2069 18.6962 83.3207 17.4738 83.3207 16.0005C83.3207 14.5596 83.2069 13.3454 82.9793 12.3578C82.7518 11.354 82.321 10.5931 81.6871 10.075C81.0531 9.55692 80.1429 9.29788 78.9563 9.29788C77.7534 9.29788 76.835 9.55692 76.2011 10.075C75.5834 10.5931 75.1527 11.3459 74.9088 12.3335C74.6813 13.3211 74.5675 14.5434 74.5675 16.0005C74.5675 17.4253 74.6813 18.6233 74.9088 19.5947C75.1364 20.5661 75.559 21.2947 76.1767 21.7804C76.8106 22.2661 77.7372 22.5089 78.9563 22.5089Z" fill="black"/>
<path d="M94.7592 24.5246C93.4913 24.5246 92.4429 24.3465 91.6139 23.9903C90.8011 23.6341 90.1672 23.0999 89.7121 22.3875C89.2569 21.6589 88.9399 20.7604 88.7611 19.6919C88.5823 18.6071 88.4929 17.3605 88.4929 15.952C88.4929 14.5111 88.5823 13.2482 88.7611 12.1635C88.9399 11.0788 89.2569 10.1802 89.7121 9.46788C90.1834 8.73933 90.8255 8.19696 91.6382 7.84078C92.451 7.46841 93.4994 7.28223 94.7835 7.28223C95.3525 7.28223 95.9295 7.31461 96.5147 7.37937C97.0998 7.42794 97.6444 7.50079 98.1483 7.59793C98.6684 7.67888 99.1154 7.75983 99.4893 7.84078L99.3918 9.7593C99.0504 9.69454 98.6197 9.63787 98.0995 9.5893C97.5956 9.52454 97.0755 9.46788 96.5391 9.41931C96.0189 9.37074 95.5394 9.34645 95.1005 9.34645C94.2228 9.34645 93.5075 9.47597 92.9549 9.73501C92.4022 9.99405 91.9715 10.3907 91.6626 10.925C91.37 11.4592 91.1669 12.1392 91.0531 12.9649C90.9555 13.7906 90.9068 14.7863 90.9068 15.952C90.9068 17.0853 90.9555 18.0648 91.0531 18.8905C91.1669 19.7161 91.37 20.3961 91.6626 20.9304C91.9552 21.4485 92.3778 21.837 92.9305 22.0961C93.4994 22.3389 94.2309 22.4604 95.1249 22.4604C95.8076 22.4604 96.5472 22.4199 97.3437 22.3389C98.1564 22.258 98.8472 22.1689 99.4162 22.0718L99.4893 24.0146C99.0992 24.0955 98.6359 24.1765 98.0995 24.2574C97.5794 24.3384 97.0267 24.4031 96.4415 24.4517C95.8726 24.5003 95.3118 24.5246 94.7592 24.5246Z" fill="black"/>
<path d="M102.488 24.2817V7.54936H104.828V15.102L107.413 15.0291L111.387 7.54936H113.996L109.461 15.9277L114.264 24.2817H111.582L107.437 17.1177L104.828 17.1905V24.2817H102.488Z" fill="black"/>
<path d="M121.816 24.5246C120.548 24.5246 119.5 24.3465 118.671 23.9903C117.858 23.6341 117.224 23.0999 116.769 22.3875C116.314 21.6589 115.997 20.7604 115.818 19.6919C115.639 18.6071 115.55 17.3605 115.55 15.952C115.55 14.5111 115.639 13.2482 115.818 12.1635C115.997 11.0788 116.314 10.1802 116.769 9.46788C117.24 8.73933 117.882 8.19696 118.695 7.84078C119.508 7.46841 120.556 7.28223 121.841 7.28223C122.409 7.28223 122.986 7.31461 123.572 7.37937C124.157 7.42794 124.701 7.50079 125.205 7.59793C125.725 7.67888 126.172 7.75983 126.546 7.84078L126.449 9.7593C126.107 9.69454 125.677 9.63787 125.156 9.5893C124.653 9.52454 124.132 9.46788 123.596 9.41931C123.076 9.37074 122.596 9.34645 122.157 9.34645C121.28 9.34645 120.565 9.47597 120.012 9.73501C119.459 9.99405 119.028 10.3907 118.72 10.925C118.427 11.4592 118.224 12.1392 118.11 12.9649C118.013 13.7906 117.964 14.7863 117.964 15.952C117.964 17.0853 118.013 18.0648 118.11 18.8905C118.224 19.7161 118.427 20.3961 118.72 20.9304C119.012 21.4485 119.435 21.837 119.987 22.0961C120.556 22.3389 121.288 22.4604 122.182 22.4604C122.865 22.4604 123.604 22.4199 124.401 22.3389C125.213 22.258 125.904 22.1689 126.473 22.0718L126.546 24.0146C126.156 24.0955 125.693 24.1765 125.156 24.2574C124.636 24.3384 124.084 24.4031 123.498 24.4517C122.93 24.5003 122.369 24.5246 121.816 24.5246Z" fill="black"/>
<path d="M129.545 24.2817V7.54936H131.885V14.8834H139.809V7.54936H142.15V24.2817H139.809V16.8991H131.885V24.2817H129.545Z" fill="black"/>
<path d="M144.707 24.2817L149.217 7.54936H153.874L158.385 24.2817H156.02L154.923 20.2747H148.145L147.047 24.2817H144.707ZM148.608 18.2833H154.484L152.143 9.49216H150.948L148.608 18.2833Z" fill="black"/>
<path d="M160.935 24.2817V7.54936H163.276V24.2817H160.935Z" fill="black"/>
<path d="M167.273 24.2817V7.54936H171.125L177.172 21.6832H177.66V7.54936H180V24.2817H176.221L170.077 10.1236H169.613V24.2817H167.273Z" fill="black"/>
<path d="M163.739 44.5834V30.6155H165.528V44.5834H163.739Z" fill="black"/>
<path fill-rule="evenodd" clip-rule="evenodd" d="M168.922 44.5834V30.6155H173.983C175.026 30.6155 175.886 30.7842 176.564 31.1216C177.255 31.4455 177.797 31.9043 178.19 32.4981C178.596 33.0919 178.881 33.8072 179.043 34.6439C179.22 35.4672 179.308 36.3849 179.308 37.397C179.308 38.4092 179.226 39.3539 179.064 40.2311C178.901 41.0948 178.617 41.8573 178.21 42.5186C177.817 43.1664 177.275 43.6725 176.584 44.0369C175.907 44.4013 175.046 44.5834 174.003 44.5834H168.922ZM170.71 43.0247H173.983C174.701 43.0247 175.283 42.8763 175.731 42.5793C176.178 42.269 176.523 41.8506 176.767 41.3243C177.025 40.7979 177.201 40.2041 177.296 39.5428C177.404 38.8681 177.458 38.1528 177.458 37.397C177.458 36.6548 177.404 35.9665 177.296 35.3322C177.201 34.6979 177.025 34.1446 176.767 33.6722C176.523 33.1999 176.171 32.8355 175.71 32.5791C175.263 32.3092 174.687 32.1742 173.983 32.1742H170.71V43.0247Z" fill="black"/>
<path d="M90.3665 44.7177V32.3287H86.1593V30.7497H96.3215V32.3287H92.155V44.7177H90.3665Z" fill="black"/>
<path fill-rule="evenodd" clip-rule="evenodd" d="M96.0106 44.7177L99.7909 30.7497H103.51L107.291 44.7177H105.502L104.527 41.2763H98.7544L97.7788 44.7177H96.0106ZM99.0999 39.7378H104.181L102.149 32.2477H101.132L99.0999 39.7378Z" fill="black"/>
<path d="M109.458 44.7177V30.7497H111.247V43.1387H117.304V44.7177H109.458Z" fill="black"/>
<path d="M119.286 44.7177V30.7497H127.964V32.3084H121.074V36.8632H126.745V38.4017H121.074V43.1589H127.964V44.7177H119.286Z" fill="black"/>
<path d="M130.621 44.7177V30.7497H133.731L138.914 42.916H139.3V30.7497H141.088V44.7177H138.04L132.796 32.5311H132.41V44.7177H130.621Z" fill="black"/>
<path d="M147.322 44.7177V32.3287H143.115V30.7497H153.278V32.3287H149.111V44.7177H147.322Z" fill="black"/>
<path d="M156.054 41.3807C157.407 41.3807 158.503 40.2886 158.503 38.9414C158.503 37.5942 157.407 36.5021 156.054 36.5021C154.702 36.5021 153.605 37.5942 153.605 38.9414C153.605 40.2886 154.702 41.3807 156.054 41.3807Z" fill="black"/>
<path fill-rule="evenodd" clip-rule="evenodd" d="M22.8953 0.782797C22.8967 0.764772 22.8974 0.746566 22.8974 0.7282C22.8974 0.326026 22.5705 0 22.1673 0C21.7891 0 21.4781 0.286889 21.441 0.654404L16.3357 1.52326C16.2247 1.40837 16.0688 1.33689 15.8962 1.33689C15.5592 1.33689 15.286 1.60941 15.286 1.94559C15.286 1.96729 15.2872 1.98874 15.2894 2.00986L9.62094 5.4811C9.54541 5.44769 9.46181 5.42913 9.37386 5.42913C9.03685 5.42913 8.76365 5.70165 8.76365 6.03782C8.76365 6.13701 8.78743 6.23066 8.82962 6.3134L4.99793 12.7444C4.93649 12.7232 4.87051 12.7117 4.80183 12.7117C4.47099 12.7117 4.20279 12.9792 4.20279 13.3092C4.20279 13.6122 4.4288 13.8625 4.72181 13.9015L4.84891 16.715C4.57001 16.766 4.35865 17.0097 4.35865 17.3027C4.35865 17.4747 4.43151 17.6297 4.54812 17.7388L1.02277 21.4515C0.979508 21.4388 0.933721 21.432 0.886339 21.432C0.619646 21.432 0.403449 21.6476 0.403449 21.9137C0.403449 22.0557 0.465107 22.1834 0.563187 22.2716L0.205304 22.9952C0.0827415 23.0643 0 23.1954 0 23.3459C0 23.5681 0.18063 23.7483 0.403449 23.7483C0.413913 23.7483 0.424285 23.7479 0.434549 23.7471L2.41739 25.0179C2.4213 25.0442 2.42776 25.0696 2.43651 25.0939L1.60352 26.3467C1.58301 26.3435 1.56199 26.3419 1.54058 26.3419C1.31776 26.3419 1.13713 26.522 1.13713 26.7443C1.13713 26.9385 1.27497 27.1005 1.45836 27.1384L1.64459 27.6171C1.57995 27.6885 1.54058 27.7831 1.54058 27.8868C1.54058 28.0063 1.5928 28.1137 1.67573 28.1874L1.53788 28.6893C1.3163 28.6907 1.13713 28.8703 1.13713 29.0917C1.13713 29.314 1.31776 29.4941 1.54058 29.4941C1.5452 29.4941 1.54981 29.4941 1.55439 29.4939L1.89893 30.3135C1.84507 30.3819 1.81295 30.4681 1.81295 30.5619C1.81295 30.7269 1.9126 30.8688 2.05517 30.9309L1.78517 32.5893C1.48607 32.6227 1.25355 32.8759 1.25355 33.1831C1.25355 33.5132 1.52175 33.7807 1.85259 33.7807C1.88414 33.7807 1.91513 33.7783 1.94536 33.7736L2.64873 35.2703C2.53635 35.379 2.4665 35.5311 2.4665 35.6995C2.4665 36.0296 2.7347 36.2971 3.06554 36.2971C3.28556 36.2971 3.47787 36.1788 3.58202 36.0024L10.0437 36.2794L10.8389 36.2987C10.8439 36.6245 11.1101 36.887 11.4379 36.887C11.5625 36.887 11.6782 36.849 11.774 36.7841L13.1925 38.2919C13.1429 38.3789 13.1146 38.4796 13.1146 38.5868C13.1146 38.9169 13.3828 39.1844 13.7136 39.1844C13.7613 39.1844 13.8077 39.1788 13.8522 39.1683L17.3596 46.0534C17.2809 46.1546 17.234 46.2816 17.234 46.4196C17.234 46.7312 17.4732 46.9871 17.7784 47.0146L18.3286 50.637C18.1065 50.7619 17.9566 50.9994 17.9566 51.2718C17.9566 51.674 18.2834 52 18.6866 52C19.0898 52 19.4166 51.674 19.4166 51.2718C19.4166 50.8696 19.0898 50.5436 18.6866 50.5436C18.6819 50.5436 18.6771 50.5436 18.6724 50.5437L18.1253 46.9413C18.3083 46.8391 18.4321 46.6437 18.4321 46.4196C18.4321 46.4068 18.4317 46.3941 18.4309 46.3816L22.3189 47.0512C22.318 47.0648 22.3175 47.0785 22.3175 47.0923C22.3175 47.4223 22.5857 47.6899 22.9165 47.6899C23.2474 47.6899 23.5156 47.4223 23.5156 47.0923C23.5156 46.7829 23.2799 46.5285 22.9778 46.4978L21.4183 39.4689L25.6532 43.974C25.6272 44.041 25.6129 44.1138 25.6129 44.19C25.6129 44.52 25.8811 44.7876 26.212 44.7876C26.5428 44.7876 26.811 44.52 26.811 44.19C26.811 43.9763 26.6986 43.7888 26.5295 43.6832L27.422 38.2362C27.7152 38.1973 27.9415 37.9469 27.9415 37.6438C27.9415 37.5266 27.9077 37.4173 27.8492 37.3251L30.3497 33.9777C30.4216 34.008 30.4992 34.0271 30.5806 34.0329L31.1329 38.0459C30.8514 38.1469 30.6501 38.4156 30.6501 38.7313C30.6501 39.1334 30.9769 39.4595 31.3801 39.4595C31.7833 39.4595 32.1101 39.1334 32.1101 38.7313C32.1101 38.3647 31.8387 38.0615 31.4854 38.0106L30.9296 33.9724C31.1853 33.8591 31.3636 33.6036 31.3636 33.3066C31.3636 33.099 31.2765 32.9117 31.1368 32.779L32.3487 30.9443C32.3982 30.9549 32.4496 30.9605 32.5023 30.9605C32.9054 30.9605 33.2323 30.6344 33.2323 30.2323C33.2323 30.0765 33.1832 29.9321 33.0997 29.8137L37.8423 22.1966C37.9165 22.2219 37.9961 22.2357 38.0789 22.2357C38.4821 22.2357 38.8089 21.9096 38.8089 21.5075C38.8089 21.1652 38.5722 20.878 38.2531 20.8001L38.165 12.6936C38.4823 12.6104 38.7164 12.3222 38.7164 11.9795C38.7164 11.5717 38.3849 11.2411 37.9761 11.2411C37.9143 11.2411 37.8542 11.2487 37.7968 11.2629L32.7054 4.61568C32.7949 4.49479 32.8478 4.34529 32.8478 4.18347C32.8478 3.7813 32.521 3.45527 32.1178 3.45527C31.8462 3.45527 31.6093 3.60318 31.4836 3.82265L22.8953 0.782797ZM22.5185 1.36675C22.6267 1.30746 22.7181 1.22164 22.784 1.11808L31.053 4.04495L29.8074 3.99609C29.7161 3.81614 29.5291 3.69277 29.3131 3.69277C29.1557 3.69277 29.0137 3.75828 28.9129 3.86346L23.6154 2.46173C23.5243 2.27856 23.3349 2.15265 23.1161 2.15265C23.098 2.15265 23.0801 2.15351 23.0624 2.15519L22.5185 1.36675ZM21.6382 1.22986C21.7676 1.36565 21.949 1.45167 22.1506 1.45621L22.7348 2.3032C22.714 2.32271 22.6947 2.34379 22.6771 2.36626L20.3465 2.33206L21.6382 1.22986ZM22.5592 2.71768L20.2989 2.68452C20.2229 2.90126 20.0162 3.05674 19.773 3.05674C19.6653 3.05674 19.5648 3.02626 19.4795 2.97348L17.6028 4.40542C17.7304 4.53619 17.809 4.71477 17.809 4.91167C17.809 4.94028 17.8073 4.96851 17.8041 4.99626L19.0919 5.68238C19.2059 5.58306 19.355 5.52288 19.5182 5.52288C19.6451 5.52288 19.7635 5.55928 19.8634 5.62217L22.6395 2.99589C22.59 2.91449 22.5609 2.81941 22.5592 2.71768ZM22.9116 3.22515L20.1002 5.88482C20.1289 5.94308 20.149 6.00627 20.159 6.07278L23.6969 6.75784C23.8277 6.54936 24.06 6.41071 24.3248 6.41071C24.5158 6.41071 24.6899 6.48285 24.8212 6.60131L27.3583 5.18049C27.3653 5.13197 27.38 5.08597 27.4013 5.04378L23.9847 3.25996L23.55 3.05661C23.4479 3.18297 23.2914 3.2638 23.1161 3.2638C23.0439 3.2638 22.9749 3.2501 22.9116 3.22515ZM27.9534 4.82312C27.9061 4.80624 27.8552 4.79704 27.8021 4.79704C27.7706 4.79704 27.7398 4.80029 27.7101 4.80647L24.2308 2.9899L28.7624 4.18895C28.7605 4.20735 28.7596 4.22602 28.7596 4.2449C28.7596 4.26672 28.7609 4.28825 28.7633 4.30941L27.9534 4.82312ZM28.2279 5.10358C28.2246 5.09368 28.221 5.08394 28.217 5.07436L28.9169 4.63046C29.0174 4.73323 29.1578 4.79704 29.3131 4.79704C29.443 4.79704 29.5624 4.75243 29.6568 4.67774L31.2138 6.48651C31.1805 6.51952 31.151 6.55636 31.126 6.5963L28.2279 5.10358ZM27.4572 5.53005C27.5395 5.62871 27.6635 5.69152 27.8021 5.69152C27.9637 5.69152 28.1053 5.60631 28.1842 5.47849L31.0353 6.94696C31.0463 7.16796 31.176 7.3578 31.3621 7.45438L30.6227 10.5129C30.621 10.5129 30.6194 10.5129 30.6177 10.5129C30.516 10.5129 30.4192 10.5336 30.3313 10.5711L25.0515 7.29012C25.0604 7.24447 25.065 7.19733 25.065 7.1491C25.065 7.05978 25.0491 6.97416 25.02 6.89491L27.4572 5.53005ZM24.5802 7.84239C24.7071 7.79586 24.8176 7.71565 24.901 7.61262L30.0347 10.8028C29.9925 10.8585 29.9582 10.9203 29.9334 10.9868L25.229 12.347C25.1428 12.196 25.0048 12.0782 24.839 12.0178L24.5802 7.84239ZM23.9297 7.77363C24.0182 7.82945 24.1193 7.86707 24.2279 7.88123L24.482 11.9804C24.1559 12.0258 23.8978 12.2831 23.8521 12.6084L19.1979 13.2298C19.1661 13.128 19.1127 13.0356 19.0431 12.958L23.9297 7.77363ZM23.5864 7.09615C23.5852 7.11364 23.5846 7.1313 23.5846 7.1491C23.5846 7.28384 23.6207 7.41014 23.6839 7.51888L18.7468 12.7569C18.7378 12.7536 18.7288 12.7505 18.7196 12.7475L19.6494 6.80241C19.859 6.75941 20.0316 6.61547 20.114 6.42377L23.5864 7.09615ZM19.208 6.73698C19.2359 6.75216 19.265 6.76536 19.2952 6.77639L18.3653 12.7223C18.2263 12.7461 18.1005 12.8085 17.9994 12.8981L14.1643 9.47212C14.2085 9.3925 14.2336 9.30092 14.2336 9.20349C14.2336 9.18974 14.2331 9.17612 14.2321 9.16263L19.208 6.73698ZM18.8985 5.97964C18.8801 6.03961 18.8702 6.10329 18.8702 6.16928C18.8702 6.27864 18.8974 6.38166 18.9455 6.47196L14.2537 8.75908L16.7492 5.55767C16.8488 5.60871 16.9617 5.63751 17.0813 5.63751C17.3276 5.63751 17.5452 5.51552 17.6769 5.32881L18.8985 5.97964ZM16.384 5.11964C16.4061 5.1935 16.4397 5.26243 16.4826 5.32436L13.8662 8.68092C13.8074 8.65969 13.744 8.64805 13.6779 8.64791L13.1582 6.199C13.4289 6.09325 13.6206 5.8304 13.6206 5.52288C13.6206 5.46065 13.6127 5.40024 13.598 5.3426L16.384 5.11964ZM17.2742 4.21159C17.2127 4.19479 17.1481 4.18582 17.0813 4.18582C16.7292 4.18582 16.4356 4.43527 16.3682 4.76665L14.0464 4.95246L18.7332 3.09839L17.2742 4.21159ZM13.2649 4.89891L13.3213 4.85942L19.1354 2.5594L16.4263 2.2473C16.3212 2.43069 16.1232 2.55428 15.8962 2.55428C15.7326 2.55428 15.5839 2.48999 15.4743 2.38535L15.4187 2.42846L13.2413 4.88549C13.2493 4.88982 13.2571 4.89429 13.2649 4.89891ZM12.8459 4.79853L14.5472 2.87868L10.0866 5.61031L12.1902 5.33399C12.2696 5.03923 12.5304 4.8186 12.8459 4.79853ZM12.2814 5.91644L8.90925 9.18958C8.93631 9.24325 8.95475 9.302 8.96276 9.364L13.1236 9.1371C13.1419 8.98382 13.2228 8.84969 13.34 8.76084L12.8058 6.24358C12.5859 6.2174 12.3961 6.0934 12.2814 5.91644ZM13.1974 9.48671L8.88526 9.72187C8.86486 9.75464 8.84107 9.78509 8.81438 9.81273L11.3927 12.9238C11.4666 12.8867 11.5501 12.8657 11.6386 12.8657C11.6696 12.8657 11.7001 12.8683 11.7298 12.8733L13.2585 9.57044C13.2356 9.54456 13.2152 9.51653 13.1974 9.48671ZM13.5661 9.74812L12.0414 13.0423C12.1309 13.1394 12.1855 13.269 12.1855 13.4113C12.1855 13.6541 12.0265 13.8599 11.8067 13.9306L11.9001 15.333C12.1516 15.3805 12.3581 15.5549 12.4501 15.787L17.7539 13.5167C17.7519 13.4948 17.7509 13.4725 17.7509 13.4501C17.7509 13.3592 17.7674 13.2721 17.7975 13.1917L13.9019 9.71175C13.8331 9.74216 13.7568 9.75906 13.6767 9.75906C13.6388 9.75906 13.6019 9.7553 13.5661 9.74812ZM17.8697 13.8514L12.4959 16.1516C12.479 16.2856 12.4261 16.4083 12.3472 16.51L17.1325 20.8678C17.185 20.8157 17.2471 20.7732 17.316 20.7433L18.1655 14.1133C18.0447 14.0542 17.9425 13.9632 17.8697 13.8514ZM18.5128 14.1882L17.6776 20.7063C17.7774 20.727 17.8681 20.7725 17.9429 20.836L23.2804 17.4328C23.2704 17.3848 23.2652 17.3352 23.2652 17.2843C23.2652 17.1386 23.3081 17.0028 23.382 16.889L18.9289 14.0456C18.8117 14.1315 18.6682 14.1837 18.5128 14.1882ZM19.1574 13.7723L23.6514 16.6418C23.7529 16.5876 23.8687 16.5567 23.9917 16.5561L24.4536 13.4384C24.1905 13.3913 23.9757 13.2057 23.8878 12.9599L19.2194 13.5832C19.2073 13.6498 19.1862 13.7132 19.1574 13.7723ZM24.8151 13.4138L24.337 16.6407C24.4763 16.7145 24.5888 16.8319 24.6561 16.9746L28.1183 16.411C28.1352 16.2729 28.1908 16.1468 28.274 16.0438L25.0408 13.2937C24.9739 13.3459 24.8976 13.3869 24.8151 13.4138ZM25.2599 13.0159L28.5646 15.8269C28.6303 15.7998 28.7007 15.7821 28.7744 15.7753L30.1911 11.8321C30.0391 11.7228 29.931 11.5565 29.8981 11.3647L25.325 12.6869C25.3253 12.6951 25.3254 12.7034 25.3254 12.7117C25.3254 12.8201 25.302 12.9231 25.2599 13.0159ZM30.5202 11.9629L29.1305 15.8308C29.2461 15.8803 29.3464 15.9588 29.4221 16.0571L35.5363 14.7019C35.5343 14.6818 35.5332 14.6614 35.5332 14.6407C35.5332 14.6018 35.537 14.5638 35.5441 14.527L31.2519 11.602C31.1261 11.8214 30.8892 11.9693 30.6177 11.9693C30.5846 11.9693 30.5521 11.9671 30.5202 11.9629ZM31.3477 11.2397L35.7127 14.2142C35.744 14.1836 35.7788 14.1563 35.8162 14.133L34.9882 11.2148C34.9841 11.2149 34.98 11.2149 34.976 11.2149C34.5728 11.2149 34.2459 10.8889 34.2459 10.4867C34.2459 10.2797 34.3325 10.093 34.4714 9.96038L32.0459 7.3692C31.9546 7.45028 31.8387 7.50429 31.7107 7.51863L30.9656 10.6008C31.1928 10.7239 31.3472 10.9638 31.3477 11.2397ZM32.2342 7.05292L34.7893 9.78252C34.8489 9.76685 34.9114 9.7585 34.976 9.7585C35.3706 9.7585 35.6922 10.0709 35.7055 10.4614L37.3037 11.6704C37.3459 11.5791 37.4063 11.4978 37.4803 11.4312L32.4323 4.8408C32.3371 4.88623 32.2304 4.91167 32.1178 4.91167C32.1004 4.91167 32.0832 4.91106 32.0661 4.90987L31.9072 6.37084C32.1099 6.46905 32.2497 6.67643 32.2497 6.91637C32.2497 6.96332 32.2443 7.00903 32.2342 7.05292ZM31.557 6.31617L31.7225 4.79575C31.5839 4.70657 31.4776 4.5719 31.4248 4.41292L29.8563 4.35139C29.8555 4.35573 29.8546 4.36006 29.8536 4.36436L31.5365 6.3194C31.5433 6.31821 31.5502 6.31713 31.557 6.31617ZM37.2409 12.0661L35.6162 10.8369C35.5499 10.9573 35.4505 11.0569 35.3302 11.1236L36.1588 14.0438C36.2129 14.0461 36.2651 14.0556 36.3146 14.0714L37.2674 12.1933C37.255 12.1523 37.246 12.1098 37.2409 12.0661ZM37.4901 12.5364L36.6072 14.2765C36.685 14.3774 36.7313 14.5037 36.7313 14.6407C36.7313 14.8757 36.5954 15.0789 36.3977 15.1766L36.7975 18.8906C37.0575 18.9558 37.2501 19.1905 37.2501 19.4701C37.2501 19.615 37.1984 19.7478 37.1124 19.8512L37.7455 20.8595C37.7938 20.8347 37.8453 20.8151 37.8991 20.8015L37.811 12.6995C37.6901 12.672 37.5804 12.615 37.4901 12.5364ZM37.4764 21.0961L36.8162 20.0447C36.7781 20.0555 36.7385 20.0627 36.6977 20.0659L35.4846 22.9861L37.4388 21.8578C37.3815 21.7539 37.3489 21.6345 37.3489 21.5075C37.3489 21.3548 37.3959 21.2132 37.4764 21.0961ZM36.2123 19.877C36.2519 19.9194 36.2975 19.9561 36.3479 19.9856L35.1081 22.9698C35.0334 22.9364 34.9505 22.9178 34.8633 22.9178C34.7199 22.9178 34.5884 22.9681 34.4852 23.0518L31.6785 21.3465C31.6855 21.332 31.6921 21.3172 31.6982 21.3021L36.2123 19.877ZM36.4435 18.9094C36.215 18.9936 36.052 19.2129 36.052 19.4701C36.052 19.4991 36.0541 19.5275 36.058 19.5554L31.7424 20.9178C31.7333 20.8593 31.7173 20.8031 31.6952 20.7501L35.9293 15.2031C35.9672 15.2167 36.0068 15.2266 36.0477 15.2324L36.4435 18.9094ZM31.4731 20.4581L35.6021 15.049L29.5641 16.3873C29.5699 16.4241 29.5728 16.4619 29.5728 16.5003C29.5728 16.7059 29.4874 16.8916 29.35 17.0241L30.8359 20.3252C30.895 20.3098 30.957 20.3016 31.0209 20.3016C31.1917 20.3016 31.3488 20.3601 31.4731 20.4581ZM30.5246 20.4958L29.0417 17.2012C28.9785 17.219 28.9118 17.2285 28.8428 17.2285C28.7009 17.2285 28.5683 17.1881 28.4562 17.1181L24.9544 20.7031C24.9852 20.7438 25.0109 20.7886 25.0306 20.8366L30.2971 20.9346C30.3197 20.762 30.4029 20.6084 30.5246 20.4958ZM30.3384 21.2885L25.0613 21.1903C25.0407 21.2849 24.9976 21.3712 24.9378 21.4432L27.7426 25.5967C27.8271 25.5626 27.9195 25.5439 28.0162 25.5439C28.0767 25.5439 28.1354 25.5512 28.1916 25.565L30.5141 21.5539C30.4375 21.4801 30.3769 21.3897 30.3384 21.2885ZM30.8208 21.7303L28.5045 25.7307C28.5691 25.7888 28.6233 25.8581 28.6639 25.9357L34.2662 23.564C34.2649 23.5479 34.2643 23.5317 34.2643 23.5154C34.2643 23.4565 34.2728 23.3996 34.2887 23.3459L31.4484 21.6202C31.3282 21.7069 31.1806 21.758 31.0209 21.758C30.9515 21.758 30.8844 21.7483 30.8208 21.7303ZM34.6797 24.0843L29.7132 29.6758C29.742 29.7459 29.758 29.8226 29.758 29.903C29.758 29.9032 29.758 29.9035 29.758 29.9037L31.801 30.0293C31.8891 29.7259 32.1697 29.5041 32.5023 29.5041C32.5867 29.5041 32.6678 29.5184 32.7432 29.5447L34.6866 24.0865C34.6843 24.0858 34.682 24.0851 34.6797 24.0843ZM35.0653 24.0781L33.4773 28.5379L37.3509 22.3166L35.4534 23.4121C35.4593 23.4456 35.4623 23.4802 35.4623 23.5154C35.4623 23.7747 35.2967 23.9954 35.0653 24.0781ZM31.9081 30.6554L28.0537 33.6609L29.906 33.3667C29.9044 33.3469 29.9035 33.3268 29.9035 33.3066C29.9035 32.9044 30.2304 32.5784 30.6336 32.5784C30.7009 32.5784 30.7662 32.5875 30.8281 32.6045L32.0289 30.7866C31.9835 30.748 31.9429 30.7039 31.9081 30.6554ZM30.0228 33.7057L28.0422 34.0203C27.9726 34.2337 27.7858 34.3943 27.5576 34.4267L27.5135 37.071C27.5361 37.0777 27.5582 37.0857 27.5797 37.095L30.0667 33.7655C30.0511 33.7464 30.0365 33.7264 30.0228 33.7057ZM27.1594 37.0747L27.2045 34.3697C27.0559 34.2954 26.9425 34.1613 26.8963 33.999L23.6667 33.8848L27.1424 37.0804C27.148 37.0784 27.1537 37.0765 27.1594 37.0747ZM26.855 37.2964L23.4942 34.2065C23.3845 34.3428 23.2159 34.4301 23.027 34.4301C23.0184 34.4301 23.0099 34.4299 23.0014 34.4295L21.4121 38.3495C21.4978 38.393 21.5716 38.4564 21.6274 38.5336L26.7443 37.6106C26.7507 37.4938 26.7908 37.3859 26.855 37.2964ZM26.8303 37.9539L21.74 38.8721C21.7401 38.8756 21.7401 38.879 21.7401 38.8825C21.7401 38.9986 21.7069 39.1069 21.6495 39.1986L25.8763 43.695C25.9652 43.6349 26.0712 43.598 26.1856 43.593L27.0729 38.1776C26.9726 38.1271 26.8884 38.0493 26.8303 37.9539ZM21.0107 39.4659C21.0259 39.4693 21.0413 39.472 21.0569 39.4742L22.6306 46.5671C22.5615 46.6046 22.5007 46.6553 22.4514 46.7157L18.2688 45.9953L21.0107 39.4659ZM20.5604 39.03C20.5854 39.1281 20.6346 39.2165 20.7015 39.2885L18.0562 45.5876L16.2313 38.8244C16.3194 38.8046 16.4002 38.7654 16.4689 38.7117L20.5604 39.03ZM21.0539 38.2913C20.8339 38.3232 20.6526 38.4745 20.5783 38.6772L16.6834 38.3742C16.6931 38.3315 16.6983 38.287 16.6983 38.2414C16.6983 38.1892 16.6916 38.1385 16.6789 38.0902L22.5662 34.2143C22.5961 34.2503 22.6302 34.2826 22.6677 34.3107L21.0539 38.2913ZM22.5641 33.4532C22.479 33.5563 22.428 33.6885 22.428 33.8325C22.428 33.8488 22.4286 33.865 22.4299 33.8809L16.492 37.7902C16.4204 37.7281 16.3338 37.6827 16.2383 37.66L16.2846 35.8631L16.3085 34.1111C16.5907 34.0104 16.7926 33.7414 16.7926 33.4253C16.7926 33.3731 16.7871 33.3222 16.7766 33.273L20.1448 32.0072C20.2544 32.1481 20.4258 32.2388 20.6185 32.2388C20.717 32.2388 20.8099 32.2151 20.8919 32.1731L22.5641 33.4532ZM23.1986 33.2599C23.1442 33.2437 23.0866 33.235 23.027 33.235C22.9774 33.235 22.9293 33.241 22.8832 33.2523L21.1468 31.9231C21.1758 31.8692 21.1967 31.8102 21.208 31.748L25.533 31.2307C25.5376 31.2413 25.5425 31.2519 25.5477 31.2622L23.1986 33.2599ZM23.542 33.5271C23.5295 33.5062 23.5157 33.4861 23.5008 33.4669L25.7936 31.5171C25.8794 31.5645 25.9781 31.5914 26.0831 31.5914C26.0958 31.5914 26.1084 31.591 26.1208 31.5903L27.0817 33.3822C27.0008 33.4518 26.9387 33.5426 26.9041 33.646L23.542 33.5271ZM27.4653 33.2376C27.4458 33.2379 27.4265 33.239 27.4075 33.2411L26.4541 31.4631C26.589 31.3568 26.677 31.1938 26.682 31.0102L28.7203 30.3537L27.4653 33.2376ZM27.8502 33.3713C27.8363 33.36 27.8218 33.3493 27.8069 33.3393L29.0469 30.4901C29.0832 30.497 29.1206 30.5005 29.1589 30.5005C29.3598 30.5005 29.5375 30.402 29.6462 30.2507L31.6912 30.3763L27.8502 33.3713ZM28.7937 29.4293C28.6515 29.5386 28.5599 29.7101 28.5599 29.903C28.5599 29.9465 28.5646 29.989 28.5734 30.0299L26.5866 30.6699C26.5584 30.6264 26.5247 30.5868 26.4865 30.552L27.9222 26.9943C27.953 26.9982 27.9843 27.0003 28.0162 27.0003C28.0194 27.0003 28.0226 27.0002 28.0258 27.0002L28.7937 29.4293ZM29.4842 29.4011C29.3905 29.3406 29.2789 29.3054 29.1589 29.3054C29.1479 29.3054 29.1369 29.3057 29.126 29.3063L28.3685 26.91C28.5903 26.7879 28.7416 26.554 28.7461 26.2845L34.3657 23.9055L29.4842 29.4011ZM27.3451 26.559C27.3981 26.6824 27.4844 26.7882 27.5927 26.8653L26.1654 30.4019C26.1385 30.3982 26.1111 30.3963 26.0831 30.3963C26.01 30.3963 25.9398 30.4094 25.875 30.4334L22.6861 26.4419L27.3451 26.559ZM27.4563 25.8048C27.3637 25.915 27.3033 26.053 27.2893 26.2044L22.5946 26.0863C22.5637 25.9526 22.4879 25.8361 22.3837 25.7534L24.4348 21.6589C24.4484 21.6598 24.4621 21.6602 24.4759 21.6602C24.5335 21.6602 24.5892 21.6521 24.6419 21.637L27.4563 25.8048ZM23.8778 21.0966C23.8877 21.2723 23.9736 21.4277 24.1033 21.5306L22.0523 25.6249C22.0386 25.624 22.0248 25.6235 22.0109 25.6235C21.9738 25.6235 21.9376 25.6269 21.9024 25.6333L18.03 21.6555C18.0568 21.6209 18.0798 21.5832 18.0985 21.5431L23.8778 21.0966ZM24.253 20.5079C24.1387 20.5536 24.0418 20.6335 23.975 20.7349L18.1447 21.1854C18.1416 21.1679 18.1377 21.1507 18.1331 21.1338L23.4361 17.7526C23.57 17.9115 23.7708 18.0125 23.9952 18.0125C23.9962 18.0125 23.9972 18.0125 23.9982 18.0125L24.253 20.5079ZM24.6634 20.495C24.6446 20.4888 24.6255 20.4836 24.6059 20.4793L24.3449 17.9237C24.5613 17.8056 24.7112 17.5815 24.7243 17.3213L28.1613 16.7617C28.175 16.7973 28.1914 16.8314 28.2102 16.864L24.6634 20.495ZM17.5489 21.8889C17.551 21.8889 17.553 21.8889 17.5551 21.8889C17.6183 21.8889 17.6793 21.8791 17.7366 21.861L21.5785 25.8075C21.4953 25.894 21.438 26.0054 21.4188 26.1293L16.7543 28.6567C16.7404 28.6404 16.7257 28.6246 16.7103 28.6095L17.5489 21.8889ZM17.0911 21.6694C17.1245 21.7101 17.1632 21.7464 17.2062 21.7771L16.377 28.4223C16.3198 28.408 16.2599 28.4004 16.1983 28.4004C16.1459 28.4004 16.0949 28.4059 16.0457 28.4163L12.743 23.2064C12.7815 23.117 12.8028 23.0186 12.8028 22.9152C12.8028 22.8515 12.7947 22.7896 12.7795 22.7306L17.0911 21.6694ZM16.9641 21.1927C16.9588 21.2248 16.956 21.2578 16.956 21.2914C16.956 21.3072 16.9566 21.3229 16.9579 21.3385L12.6028 22.4104C12.5225 22.3249 12.4221 22.2585 12.309 22.2187L11.9108 16.7818C11.9648 16.7708 12.0167 16.7539 12.0657 16.7318L16.9641 21.1927ZM11.2458 16.5882C11.2631 16.605 11.2812 16.6209 11.3001 16.6359L9.81415 19.158L8.6034 21.3183L8.9143 17.5682C9.09615 17.4824 9.22197 17.2978 9.22197 17.0839C9.22197 17.0689 9.22136 17.0542 9.22016 17.0396L11.2458 16.5882ZM11.0214 16.0732C11.0227 16.1414 11.0333 16.2072 11.052 16.2696L9.0705 16.7111C8.97296 16.6108 8.83642 16.5485 8.68528 16.5485C8.6249 16.5485 8.56684 16.5585 8.51266 16.5768L6.74459 14.4474L11.0214 16.0732ZM11.5466 15.3517C11.3518 15.4105 11.1911 15.5472 11.1006 15.7255L6.90068 14.1289C6.9086 14.0901 6.91277 14.05 6.91277 14.0089C6.91277 13.7879 6.79257 13.595 6.61384 13.4916L8.26311 9.95709C8.3129 9.97197 8.36568 9.97996 8.42032 9.97996C8.44394 9.97996 8.46721 9.97847 8.49004 9.97557L11.144 13.1779C11.1104 13.2487 11.0916 13.3278 11.0916 13.4113C11.0916 13.6471 11.2415 13.8479 11.4515 13.9242L11.5466 15.3517ZM8.33809 8.89492C8.07503 8.93449 7.87337 9.16094 7.87337 9.43438C7.87337 9.55017 7.90954 9.65755 7.97122 9.74586L6.25972 13.4137C6.05395 13.4321 5.87812 13.5542 5.78524 13.7273L5.39021 13.4221C5.39721 13.3855 5.40088 13.3478 5.40088 13.3092C5.40088 13.1766 5.35757 13.0541 5.28429 12.955L9.08581 6.57456C9.127 6.5966 9.17101 6.61406 9.21716 6.62626L8.33809 8.89492ZM9.60659 6.60068L8.72507 8.87566L11.9783 5.71798L9.98138 5.98029C9.98316 5.99923 9.98407 6.01842 9.98407 6.03782C9.98407 6.29178 9.82815 6.50942 9.60659 6.60068ZM5.07347 13.8419C5.12755 13.8145 5.17688 13.779 5.21993 13.7372L5.72673 14.1287C5.76438 14.3132 5.88728 14.4668 6.05262 14.5468L6.34989 17.8232L5.55077 17.3874C5.5547 17.3597 5.55674 17.3315 5.55674 17.3027C5.55674 17.0607 5.41256 16.8524 5.20523 16.7584L5.07347 13.8419ZM4.88635 17.8961C4.90974 17.8988 4.93355 17.9003 4.9577 17.9003C5.13224 17.9003 5.28934 17.8258 5.39883 17.707L6.11506 18.0976C6.089 18.1477 6.07064 18.2023 6.06152 18.2601L3.02102 20.4644C2.73062 20.4739 2.49792 20.7109 2.49618 21.0025L1.51445 21.4472L4.88635 17.8961ZM2.61062 21.3384L1.36906 21.9008C1.36917 21.9051 1.36923 21.9094 1.36923 21.9137C1.36923 22.1762 1.15865 22.3897 0.896767 22.3952L0.600372 22.9945C0.659409 23.0275 0.70928 23.0749 0.745217 23.1319L3.58603 23.5529C3.62265 23.4891 3.67628 23.4362 3.74075 23.4005L2.95736 21.5413C2.81692 21.5202 2.69412 21.4453 2.61062 21.3384ZM3.31287 21.4737L4.12261 23.3954C4.1706 23.4204 4.21294 23.4547 4.24719 23.4959L7.62317 22.3315C7.62135 22.3125 7.62041 22.2932 7.62041 22.2737C7.62041 22.0332 7.76287 21.8259 7.96822 21.7311L6.58934 18.8793C6.40259 18.8785 6.23836 18.7826 6.14283 18.6376L3.41532 20.615C3.51821 20.7136 3.58224 20.8522 3.58224 21.0058C3.58224 21.2054 3.474 21.3798 3.31287 21.4737ZM6.926 18.7628L8.23553 21.4711L8.55615 17.6036C8.43169 17.5729 8.32435 17.499 8.25111 17.3986L7.12148 18.2582C7.12599 18.2861 7.12834 18.3148 7.12834 18.344C7.12834 18.5135 7.04931 18.6647 6.926 18.7628ZM6.94945 17.945L8.15123 17.0305C8.1598 16.9441 8.18895 16.8638 8.23372 16.7944L6.41304 14.6017L6.7051 17.8206C6.79768 17.8405 6.88138 17.8842 6.94945 17.945ZM8.79212 22.0978C8.76928 22.0238 8.7324 21.9558 8.68457 21.8971L10.1213 19.3336L11.5634 16.8858L11.9516 22.185C11.76 22.2138 11.5924 22.3158 11.4784 22.4616L8.79212 22.0978ZM8.52026 22.7906C8.64782 22.7166 8.74548 22.5969 8.79075 22.454L11.3316 22.7981C11.3255 22.8362 11.3223 22.8753 11.3223 22.9152C11.3223 23.0356 11.3512 23.1493 11.4025 23.2497L8.2885 26.2319L8.52026 22.7906ZM7.76049 22.6578C7.85846 22.7741 8.00009 22.8527 8.16022 22.8684L7.9363 26.1933C7.64702 26.2121 7.41375 26.4358 7.38083 26.7203L5.22371 27.5676C5.15566 27.5154 5.07045 27.4844 4.97797 27.4844C4.95845 27.4844 4.93925 27.4857 4.92047 27.4884L4.06322 26.6692C4.06639 26.6489 4.06803 26.6281 4.06803 26.6069C4.06803 26.5161 4.03786 26.4322 3.98696 26.3649L4.20801 24.0501C4.26814 23.9955 4.31165 23.9229 4.33008 23.841L7.76049 22.6578ZM3.56353 23.9065C3.57564 23.9357 3.59109 23.9631 3.60939 23.9883L3.03256 24.6183C2.97008 24.5787 2.89594 24.5558 2.81643 24.5558C2.70581 24.5558 2.6056 24.6002 2.53271 24.6721L0.759349 23.5356C0.766578 23.5221 0.773061 23.5082 0.778743 23.4939L3.56353 23.9065ZM2.69606 25.3424C2.73408 25.3543 2.77451 25.3607 2.81643 25.3607C3.03925 25.3607 3.21988 25.1805 3.21988 24.9582C3.21988 24.9489 3.21956 24.9397 3.21895 24.9306L3.23266 24.9234L3.83147 24.2694L3.64665 26.2048C3.50165 26.2112 3.37652 26.2938 3.31065 26.4136L1.99202 26.4013L2.69606 25.3424ZM3.29412 26.7665L1.94392 26.754C1.94113 26.8721 1.88727 26.9777 1.80351 27.0495L1.97306 27.4854C2.03666 27.4899 2.09618 27.5091 2.14823 27.5396L3.29703 26.7731C3.29604 26.7709 3.29507 26.7687 3.29412 26.7665ZM3.58996 27.0025L2.69224 27.6015H4.52706L3.85669 26.9609C3.79957 26.9918 3.73413 27.0093 3.66458 27.0093C3.63909 27.0093 3.61415 27.007 3.58996 27.0025ZM2.01656 28.2828C2.18276 28.2527 2.31348 28.121 2.34178 27.9546H3.96504L1.90807 28.6778L2.01656 28.2828ZM4.81302 28.2542L3.44611 29.452C3.46741 29.5035 3.47915 29.5599 3.47915 29.6191C3.47915 29.7189 3.44577 29.8109 3.38953 29.8846L5.54602 32.1966C5.57917 32.1878 5.614 32.1831 5.64992 32.1831C5.66091 32.1831 5.6718 32.1836 5.68257 32.1844L7.62079 27.2709C7.54977 27.2186 7.49071 27.1511 7.44851 27.0732L5.38142 27.8852C5.38142 27.8857 5.38142 27.8863 5.38142 27.8868C5.38142 28.1091 5.20079 28.2893 4.97797 28.2893C4.91921 28.2893 4.86338 28.2767 4.81302 28.2542ZM7.95548 27.3868L5.99012 32.3692C6.03016 32.4317 6.05337 32.5059 6.05337 32.5856C6.05337 32.7561 5.94708 32.9018 5.79699 32.9605L5.74414 33.985C5.79766 34.0145 5.84377 34.0556 5.87896 34.1051L10.5154 32.9134C10.5154 32.913 10.5154 32.9126 10.5154 32.9122C10.5154 32.7026 10.6235 32.5183 10.7872 32.4116L8.19874 27.3444C8.12986 27.372 8.05465 27.3871 7.97589 27.3871C7.96906 27.3871 7.96226 27.387 7.95548 27.3868ZM8.47865 27.1146L11.1242 32.2934L11.8289 23.616C11.7587 23.5928 11.6932 23.5593 11.6341 23.5174L8.50672 26.5124C8.55028 26.5952 8.57493 26.6895 8.57493 26.7896C8.57493 26.9094 8.53955 27.021 8.47865 27.1146ZM12.1818 23.6441L11.4682 32.43C11.4842 32.4417 11.4996 32.4541 11.5143 32.4673L15.6452 29.6039C15.5349 29.4763 15.4683 29.3102 15.4683 29.1286C15.4683 28.9059 15.5684 28.7066 15.7262 28.5731L12.5117 23.5022C12.4171 23.5743 12.3045 23.6242 12.1818 23.6441ZM15.9587 29.8166L11.6966 32.771C11.7076 32.8162 11.7135 32.8635 11.7135 32.9122C11.7135 33.1137 11.6135 33.2919 11.4603 33.4001L11.59 35.7113C11.6437 35.7253 11.6944 35.7466 11.741 35.7739L15.3419 33.542C15.3357 33.504 15.3325 33.465 15.3325 33.4253C15.3325 33.0284 15.6508 32.7057 16.0466 32.6973L16.1348 29.8541C16.0736 29.8488 16.0146 29.836 15.9587 29.8166ZM16.4907 29.796L16.3983 32.7785C16.4832 32.8224 16.5583 32.8825 16.6197 32.9547L20.0205 31.6765C20.0198 31.6649 20.0194 31.6531 20.0194 31.6413C20.0194 31.6316 20.0197 31.622 20.0201 31.6124L16.7492 29.6064C16.6786 29.6872 16.5905 29.7524 16.4907 29.796ZM16.9102 29.2906L20.1454 31.2747C20.255 31.1342 20.4261 31.0437 20.6185 31.0437C20.6422 31.0437 20.6655 31.0451 20.6885 31.0478L21.6721 26.714C21.5917 26.6589 21.5255 26.5848 21.4799 26.4981L16.9117 28.9733C16.9226 29.0233 16.9283 29.0753 16.9283 29.1286C16.9283 29.1843 16.922 29.2385 16.9102 29.2906ZM22.0113 26.8186L21.0178 31.1959C21.0802 31.2516 21.1308 31.3202 21.1655 31.3974L25.495 30.8796C25.5115 30.7948 25.5459 30.7164 25.5942 30.6485L22.4118 26.6651C22.3057 26.7604 22.1653 26.8185 22.0113 26.8186ZM15.4841 33.8695L11.9824 36.04C12.0174 36.1159 12.0369 36.2004 12.0369 36.2894C12.0369 36.3654 12.0227 36.438 11.9968 36.5049L13.4503 38.05C13.5298 38.0111 13.6191 37.9893 13.7136 37.9893C13.778 37.9893 13.8399 37.9994 13.898 38.0181L15.6252 34.0084C15.5721 33.9687 15.5246 33.9219 15.4841 33.8695ZM15.9516 34.1451L14.1928 38.2282C14.2335 38.2822 14.2653 38.3434 14.2858 38.4095L15.5043 38.1706C15.5307 37.9474 15.6804 37.7619 15.8836 37.6837L15.9307 35.8573L15.9307 35.8551L15.954 34.1455C15.9532 34.1454 15.9524 34.1453 15.9516 34.1451ZM15.5681 38.518L14.2841 38.7697C14.2577 38.8516 14.2141 38.9259 14.1575 38.9882L17.6528 45.8495C17.6855 45.8393 17.7194 45.8317 17.7543 45.8271L15.8547 38.787C15.7315 38.732 15.6304 38.6367 15.5681 38.518ZM11.2363 35.7265L11.1119 33.5098C10.9082 33.5089 10.7285 33.4066 10.6208 33.2509L6.09044 34.4154L10.9298 35.8769L10.9919 35.8905C11.0577 35.8172 11.1415 35.7603 11.2363 35.7265ZM5.33254 34.677C5.39524 34.717 5.46978 34.7402 5.54975 34.7402C5.6253 34.7402 5.696 34.7195 5.75646 34.6835L9.842 35.9173L3.66275 35.6525C3.662 35.6429 3.66102 35.6333 3.65982 35.6239L5.33254 34.677ZM5.39057 33.9679C5.2469 34.0295 5.1463 34.1719 5.1463 34.3378C5.1463 34.3505 5.14689 34.363 5.14804 34.3754L3.96282 35.0463L5.43269 33.1512L5.39057 33.9679ZM3.3955 35.2007L5.23116 32.834L2.43989 33.3014C2.415 33.4251 2.35185 33.5349 2.26329 33.6182L2.96454 35.1104C2.99737 35.1049 3.03112 35.102 3.06554 35.102C3.18746 35.102 3.30088 35.1383 3.3955 35.2007ZM2.40406 32.9494L5.2632 32.4705C5.26752 32.4561 5.27264 32.4419 5.2785 32.4282L3.06683 30.057C3.05773 30.0576 3.04856 30.0579 3.03931 30.0579C2.96952 30.0579 2.90353 30.0417 2.84491 30.0128L2.60779 30.4638C2.61567 30.4952 2.61985 30.528 2.61985 30.5619C2.61985 30.7113 2.53822 30.8417 2.41702 30.9111L2.13311 32.655C2.25393 32.719 2.35017 32.8231 2.40406 32.9494ZM2.35524 30.1839L2.60766 29.7038C2.6058 29.6943 2.60425 29.6847 2.60301 29.675L1.87185 29.3215C1.87059 29.3233 1.86931 29.3251 1.86802 29.3269L2.21802 30.1594C2.26622 30.1596 2.31243 30.1682 2.35524 30.1839ZM3.18966 29.2067C3.14275 29.1897 3.09212 29.1804 3.03931 29.1804C2.90621 29.1804 2.78692 29.2393 2.70626 29.3325L2.03453 29.0077L4.34286 28.1962L3.18966 29.2067ZM16.5048 1.90088L19.2914 2.22191C19.3879 2.05666 19.5674 1.94559 19.773 1.94559C19.9025 1.94559 20.0218 1.98972 20.1164 2.06373L21.3251 1.03235L16.4995 1.85359C16.5019 1.86917 16.5037 1.88494 16.5048 1.90088Z" fill="url(#paint0_linear_354_721)"/>
<defs>
<linearGradient id="paint0_linear_354_721" x1="5.70086" y1="11.4569" x2="38.7157" y2="49.1997" gradientUnits="userSpaceOnUse">
<stop stop-color="#01ADFF"/>
<stop offset="0.837453" stop-color="#D700FF"/>
</linearGradient>
</defs>
</svg>
