<svg width="24" height="24" viewBox="0 0 24 24" fill="none" xmlns="http://www.w3.org/2000/svg">
<g clip-path="url(#clip0_305_2142)">
<path d="M8.98906 5.25931C8.43678 5.25931 7.98906 5.70702 7.98906 6.25931C7.98906 6.81159 8.43678 7.25931 8.98906 7.25931V5.25931ZM16.5805 7.25931C17.1328 7.25931 17.5805 6.81159 17.5805 6.25931C17.5805 5.70702 17.1328 5.25931 16.5805 5.25931V7.25931ZM12.0522 8.8045C11.4999 8.8045 11.0522 9.25222 11.0522 9.8045C11.0522 10.3568 11.4999 10.8045 12.0522 10.8045V8.8045ZM19.6437 10.8045C20.196 10.8045 20.6437 10.3568 20.6437 9.8045C20.6437 9.25222 20.196 8.8045 19.6437 8.8045V10.8045ZM2.91305 6.06744C2.91305 6.61973 3.36077 7.06744 3.91305 7.06744C4.46534 7.06744 4.91305 6.61973 4.91305 6.06744H2.91305ZM16.4871 17.4442C15.9348 17.4442 15.4871 17.8919 15.4871 18.4442C15.4871 18.9965 15.9348 19.4442 16.4871 19.4442V17.4442ZM8.11102 13.6204H9.11102H8.11102ZM5.51308 16.2184V17.2184V16.2184ZM2.91513 13.6204H1.91513H2.91513ZM5.51308 18.1668V17.1668V18.1668ZM-0.0333252 22.7132C-0.0333252 23.2655 0.41439 23.7132 0.966675 23.7132C1.51896 23.7132 1.96667 23.2655 1.96667 22.7132H-0.0333252ZM9.05948 22.7132C9.05948 23.2655 9.50719 23.7132 10.0595 23.7132C10.6118 23.7132 11.0595 23.2655 11.0595 22.7132H9.05948ZM9.094 21.3995C8.9571 21.9346 9.27986 22.4793 9.81491 22.6162C10.35 22.7531 10.8947 22.4303 11.0316 21.8953L9.094 21.3995ZM12.9535 14.3838C13.0904 13.8488 12.7676 13.3041 12.2326 13.1672C11.6975 13.0303 11.1528 13.353 11.0159 13.8881L12.9535 14.3838ZM8.98906 7.25931H16.5805V5.25931H8.98906V7.25931ZM12.0522 10.8045H19.6437V8.8045H12.0522V10.8045ZM4.91305 6.06744V1.73973H2.91305V6.06744H4.91305ZM4.36604 2.28674H22.5805V0.286743H4.36604V2.28674ZM22.0335 1.73973V17.9912H24.0335V1.73973H22.0335ZM22.5805 17.4442H16.4871V19.4442H22.5805V17.4442ZM22.0335 17.9912C22.0335 17.6891 22.2784 17.4442 22.5805 17.4442V19.4442C23.383 19.4442 24.0335 18.7937 24.0335 17.9912H22.0335ZM22.5805 2.28674C22.2784 2.28674 22.0335 2.04183 22.0335 1.73973H24.0335C24.0335 0.93727 23.383 0.286743 22.5805 0.286743V2.28674ZM4.91305 1.73973C4.91305 2.04183 4.66815 2.28674 4.36604 2.28674V0.286743C3.56358 0.286743 2.91305 0.937268 2.91305 1.73973H4.91305ZM7.11102 13.6204C7.11102 14.0442 6.94267 14.4507 6.64299 14.7503L8.05721 16.1645C8.73195 15.4898 9.11102 14.5746 9.11102 13.6204H7.11102ZM6.64299 14.7503C6.34332 15.05 5.93688 15.2184 5.51308 15.2184V17.2184C6.46731 17.2184 7.38246 16.8393 8.05721 16.1645L6.64299 14.7503ZM5.51308 15.2184C5.08928 15.2184 4.68283 15.05 4.38316 14.7503L2.96895 16.1645C3.64369 16.8393 4.55884 17.2184 5.51308 17.2184V15.2184ZM4.38316 14.7503C4.08349 14.4507 3.91513 14.0442 3.91513 13.6204H1.91513C1.91513 14.5746 2.2942 15.4898 2.96895 16.1645L4.38316 14.7503ZM3.91513 13.6204C3.91513 13.1966 4.08349 12.7902 4.38316 12.4905L2.96895 11.0763C2.2942 11.751 1.91513 12.6662 1.91513 13.6204H3.91513ZM4.38316 12.4905C4.68283 12.1908 5.08928 12.0225 5.51308 12.0225V10.0225C4.55884 10.0225 3.64369 10.4015 2.96895 11.0763L4.38316 12.4905ZM5.51308 12.0225C5.93688 12.0225 6.34332 12.1908 6.64299 12.4905L8.05721 11.0763C7.38246 10.4015 6.46731 10.0225 5.51308 10.0225V12.0225ZM6.64299 12.4905C6.94267 12.7902 7.11102 13.1966 7.11102 13.6204H9.11102C9.11102 12.6662 8.73195 11.751 8.05721 11.0763L6.64299 12.4905ZM5.51308 17.1668C4.04208 17.1668 2.63133 17.7512 1.59118 18.7913L3.00539 20.2055C3.67047 19.5405 4.57251 19.1668 5.51308 19.1668V17.1668ZM1.59118 18.7913C0.551026 19.8315 -0.0333252 21.2422 -0.0333252 22.7132H1.96667C1.96667 21.7727 2.34031 20.8706 3.00539 20.2055L1.59118 18.7913ZM11.0595 22.7132C11.0595 21.2422 10.4751 19.8315 9.43498 18.7913L8.02076 20.2055C8.68584 20.8706 9.05948 21.7727 9.05948 22.7132H11.0595ZM9.43498 18.7913C8.39482 17.7512 6.98408 17.1668 5.51308 17.1668V19.1668C6.45364 19.1668 7.35568 19.5405 8.02076 20.2055L9.43498 18.7913ZM11.0316 21.8953L12.9535 14.3838L11.0159 13.8881L9.094 21.3995L11.0316 21.8953Z" fill="#466AFF"/>
</g>
<defs>
<clipPath id="clip0_305_2142">
<rect width="24" height="24" fill="white"/>
</clipPath>
</defs>
</svg>
