<svg width="24" height="24" viewBox="0 0 24 24" fill="none" xmlns="http://www.w3.org/2000/svg">
<g clip-path="url(#clip0_305_2191)">
<path d="M18.133 19.6991C17.7187 19.6991 17.383 20.0349 17.383 20.4491C17.383 20.8633 17.7187 21.1991 18.133 21.1991V19.6991ZM10.8436 21.1991C11.2578 21.1991 11.5936 20.8633 11.5936 20.4491C11.5936 20.0349 11.2578 19.6991 10.8436 19.6991V21.1991ZM5.83618 1.49744H18.1637V-0.00256348H5.83618V1.49744ZM19.4137 2.74744V18.4491H20.9137V2.74744H19.4137ZM4.58618 18.4491V2.74744H3.08618V18.4491H4.58618ZM18.1637 19.6991H18.133V21.1991H18.1637V19.6991ZM10.8436 19.6991H5.83618V21.1991H10.8436V19.6991ZM3.08618 18.4491C3.08618 19.9679 4.3174 21.1991 5.83618 21.1991V19.6991C5.14583 19.6991 4.58618 19.1395 4.58618 18.4491H3.08618ZM19.4137 18.4491C19.4137 19.1395 18.8541 19.6991 18.1637 19.6991V21.1991C19.6825 21.1991 20.9137 19.9679 20.9137 18.4491H19.4137ZM18.1637 1.49744C18.8541 1.49744 19.4137 2.05708 19.4137 2.74744H20.9137C20.9137 1.22865 19.6825 -0.00256348 18.1637 -0.00256348V1.49744ZM5.83618 -0.00256348C4.3174 -0.00256348 3.08618 1.22866 3.08618 2.74744H4.58618C4.58618 2.05708 5.14583 1.49744 5.83618 1.49744V-0.00256348Z" fill="#466AFF"/>
<line x1="7.04858" y1="4.59412" x2="16.4244" y2="4.59412" stroke="#466AFF" stroke-width="1.5" stroke-linecap="round"/>
<line x1="7.04858" y1="7.45276" x2="16.4244" y2="7.45276" stroke="#466AFF" stroke-width="1.5" stroke-linecap="round"/>
<line x1="7.04858" y1="10.3115" x2="16.4244" y2="10.3115" stroke="#466AFF" stroke-width="1.5" stroke-linecap="round"/>
<line x1="7.04858" y1="13.2109" x2="10.409" y2="13.2109" stroke="#466AFF" stroke-width="1.5" stroke-linecap="round"/>
<line x1="7.04858" y1="16.0831" x2="9.63673" y2="16.0831" stroke="#466AFF" stroke-width="1.5" stroke-linecap="round"/>
<circle cx="14.4781" cy="15.5609" r="2.76667" stroke="#466AFF" stroke-width="1.5"/>
<path d="M12.6699 17.883V22.8449C12.6699 23.0111 12.8609 23.1048 12.9923 23.0031L14.4062 21.909C14.4386 21.8839 14.4839 21.8839 14.5163 21.909L15.9302 23.0031C16.0616 23.1048 16.2526 23.0111 16.2526 22.8449V17.883" stroke="#466AFF" stroke-width="1.5"/>
<path d="M13.4639 15.709L14.153 16.2687C14.2202 16.3233 14.3194 16.3105 14.3706 16.2406L15.4591 14.7524" stroke="#466AFF" stroke-width="1.13494" stroke-linecap="round"/>
</g>
<defs>
<clipPath id="clip0_305_2191">
<rect width="24" height="24" fill="white"/>
</clipPath>
</defs>
</svg>
